# Blender 5.1.1
# www.blender.org
mtllib puerta.mtl
o Esfera
v 20.947077 14.843689 -3.549444
v 20.947077 14.857903 -3.502585
v 20.947077 14.881174 -3.479315
v 20.947077 14.911578 -3.466721
v 20.947077 14.928033 -3.465100
v 20.947077 14.944488 -3.466721
v 20.947077 14.974892 -3.479315
v 20.947077 15.012377 -3.549444
v 20.943867 14.845309 -3.533306
v 20.940781 14.850109 -3.517787
v 20.937935 14.857903 -3.503485
v 20.935442 14.868393 -3.490950
v 20.933395 14.881174 -3.480662
v 20.931875 14.895756 -3.473018
v 20.930939 14.911578 -3.468310
v 20.930622 14.928033 -3.466721
v 20.930939 14.944488 -3.468310
v 20.931875 14.960310 -3.473018
v 20.933395 14.974892 -3.480662
v 20.935442 14.987673 -3.490950
v 20.937935 14.998162 -3.503485
v 20.940781 15.005957 -3.517787
v 20.943867 15.010756 -3.533306
v 20.940781 14.845309 -3.534242
v 20.934725 14.850109 -3.519624
v 20.929144 14.857903 -3.506152
v 20.924253 14.868393 -3.494344
v 20.920238 14.881174 -3.484653
v 20.917257 14.895756 -3.477452
v 20.915421 14.911578 -3.473018
v 20.914799 14.928033 -3.471520
v 20.915421 14.944488 -3.473018
v 20.917257 14.960310 -3.477452
v 20.920238 14.974892 -3.484653
v 20.924253 14.987673 -3.494344
v 20.929144 14.998162 -3.506152
v 20.934725 15.005957 -3.519624
v 20.940781 15.010756 -3.534242
v 20.937935 14.845309 -3.535763
v 20.929144 14.850109 -3.522607
v 20.921043 14.857903 -3.510482
v 20.913942 14.868393 -3.499855
v 20.908115 14.881174 -3.491134
v 20.903784 14.895756 -3.484653
v 20.901117 14.911578 -3.480662
v 20.900217 14.928033 -3.479315
v 20.901117 14.944488 -3.480662
v 20.903784 14.960310 -3.484653
v 20.908115 14.974892 -3.491134
v 20.913942 14.987673 -3.499855
v 20.921043 14.998162 -3.510482
v 20.929144 15.005957 -3.522607
v 20.937935 15.010756 -3.535763
v 20.935442 14.845309 -3.537809
v 20.924253 14.850109 -3.526621
v 20.913942 14.857903 -3.516310
v 20.904905 14.868393 -3.507272
v 20.897488 14.881174 -3.499855
v 20.891975 14.895756 -3.494344
v 20.888582 14.911578 -3.490950
v 20.887436 14.928033 -3.489804
v 20.888582 14.944488 -3.490950
v 20.891975 14.960310 -3.494344
v 20.897488 14.974892 -3.499855
v 20.904905 14.987673 -3.507272
v 20.913942 14.998162 -3.516310
v 20.924253 15.005957 -3.526621
v 20.935442 15.010756 -3.537809
v 20.933395 14.845309 -3.540303
v 20.920238 14.850109 -3.531512
v 20.908115 14.857903 -3.523411
v 20.897488 14.868393 -3.516310
v 20.888765 14.881174 -3.510482
v 20.882286 14.895756 -3.506152
v 20.878294 14.911578 -3.503485
v 20.876947 14.928033 -3.502585
v 20.878294 14.944488 -3.503485
v 20.882286 14.960310 -3.506152
v 20.888765 14.974892 -3.510482
v 20.897488 14.987673 -3.516310
v 20.908115 14.998162 -3.523411
v 20.920238 15.005957 -3.531512
v 20.933395 15.010756 -3.540303
v 20.931875 14.845309 -3.543147
v 20.917257 14.850109 -3.537092
v 20.903784 14.857903 -3.531512
v 20.891975 14.868393 -3.526621
v 20.882286 14.881174 -3.522607
v 20.875084 14.895756 -3.519624
v 20.870649 14.911578 -3.517787
v 20.869152 14.928033 -3.517167
v 20.870649 14.944488 -3.517787
v 20.875084 14.960310 -3.519624
v 20.882286 14.974892 -3.522607
v 20.891975 14.987673 -3.526621
v 20.903784 14.998162 -3.531512
v 20.917257 15.005957 -3.537092
v 20.931875 15.010756 -3.543147
v 20.930939 14.845309 -3.546234
v 20.915421 14.850109 -3.543147
v 20.901117 14.857903 -3.540303
v 20.888582 14.868393 -3.537809
v 20.878294 14.881174 -3.535763
v 20.870649 14.895756 -3.534242
v 20.865942 14.911578 -3.533306
v 20.864353 14.928033 -3.532990
v 20.865942 14.944488 -3.533306
v 20.870649 14.960310 -3.534242
v 20.878294 14.974892 -3.535763
v 20.888582 14.987673 -3.537809
v 20.901117 14.998162 -3.540303
v 20.915421 15.005957 -3.543147
v 20.930939 15.010756 -3.546234
v 20.930622 14.845309 -3.549444
v 20.914801 14.850109 -3.549444
v 20.900217 14.857903 -3.549444
v 20.887436 14.868393 -3.549444
v 20.876947 14.881174 -3.549444
v 20.869152 14.895756 -3.549444
v 20.864353 14.911578 -3.549444
v 20.862732 14.928033 -3.549444
v 20.864353 14.944488 -3.549444
v 20.869152 14.960310 -3.549444
v 20.876947 14.974892 -3.549444
v 20.887436 14.987673 -3.549444
v 20.900217 14.998162 -3.549444
v 20.914801 15.005957 -3.549444
v 20.930622 15.010756 -3.549444
v 20.930939 14.845309 -3.552654
v 20.915421 14.850109 -3.555741
v 20.901117 14.857903 -3.558586
v 20.888582 14.868393 -3.561080
v 20.878294 14.881174 -3.563126
v 20.870649 14.895756 -3.564647
v 20.865942 14.911578 -3.565583
v 20.864353 14.928033 -3.565899
v 20.865942 14.944488 -3.565583
v 20.870649 14.960310 -3.564647
v 20.878294 14.974892 -3.563126
v 20.888582 14.987673 -3.561080
v 20.901117 14.998162 -3.558586
v 20.915421 15.005957 -3.555741
v 20.930939 15.010756 -3.552654
v 20.931875 14.845309 -3.555741
v 20.917257 14.850109 -3.561796
v 20.903784 14.857903 -3.567376
v 20.891975 14.868393 -3.572268
v 20.882286 14.881174 -3.576282
v 20.875084 14.895756 -3.579264
v 20.870649 14.911578 -3.581101
v 20.869152 14.928033 -3.581721
v 20.870649 14.944488 -3.581101
v 20.875084 14.960310 -3.579264
v 20.882286 14.974892 -3.576282
v 20.891975 14.987673 -3.572268
v 20.903784 14.998162 -3.567376
v 20.917257 15.005957 -3.561796
v 20.931875 15.010756 -3.555741
v 20.933395 14.845309 -3.558586
v 20.920238 14.850109 -3.567376
v 20.908115 14.857903 -3.575478
v 20.897488 14.868393 -3.582579
v 20.888765 14.881174 -3.588406
v 20.882286 14.895756 -3.592736
v 20.878294 14.911578 -3.595403
v 20.876947 14.928033 -3.596303
v 20.878294 14.944488 -3.595403
v 20.882286 14.960310 -3.592736
v 20.888765 14.974892 -3.588406
v 20.897488 14.987673 -3.582579
v 20.908115 14.998162 -3.575478
v 20.920238 15.005957 -3.567376
v 20.933395 15.010756 -3.558586
v 20.935442 14.845309 -3.561080
v 20.924253 14.850109 -3.572268
v 20.913942 14.857903 -3.582579
v 20.904905 14.868393 -3.591616
v 20.897488 14.881174 -3.599033
v 20.891975 14.895756 -3.604545
v 20.888582 14.911578 -3.607939
v 20.887436 14.928033 -3.609085
v 20.888582 14.944488 -3.607939
v 20.891975 14.960310 -3.604545
v 20.897488 14.974892 -3.599033
v 20.904905 14.987673 -3.591616
v 20.913942 14.998162 -3.582579
v 20.924253 15.005957 -3.572268
v 20.935442 15.010756 -3.561080
v 20.937935 14.845309 -3.563126
v 20.929144 14.850109 -3.576282
v 20.921043 14.857903 -3.588406
v 20.913942 14.868393 -3.599033
v 20.908115 14.881174 -3.607755
v 20.903784 14.895756 -3.614235
v 20.901117 14.911578 -3.618226
v 20.900217 14.928033 -3.619574
v 20.901117 14.944488 -3.618226
v 20.903784 14.960310 -3.614235
v 20.908115 14.974892 -3.607755
v 20.913942 14.987673 -3.599033
v 20.921043 14.998162 -3.588406
v 20.929144 15.005957 -3.576282
v 20.937935 15.010756 -3.563126
v 20.940781 14.845309 -3.564647
v 20.934725 14.850109 -3.579264
v 20.929144 14.857903 -3.592736
v 20.924253 14.868393 -3.604545
v 20.920238 14.881174 -3.614235
v 20.917257 14.895756 -3.621436
v 20.915421 14.911578 -3.625871
v 20.914801 14.928033 -3.627368
v 20.915421 14.944488 -3.625871
v 20.917257 14.960310 -3.621436
v 20.920238 14.974892 -3.614235
v 20.924253 14.987673 -3.604545
v 20.929144 14.998162 -3.592736
v 20.934725 15.005957 -3.579264
v 20.940781 15.010756 -3.564647
v 20.943867 14.845309 -3.565583
v 20.940781 14.850109 -3.581101
v 20.937935 14.857903 -3.595403
v 20.935442 14.868393 -3.607939
v 20.933395 14.881174 -3.618226
v 20.931875 14.895756 -3.625871
v 20.930939 14.911578 -3.630578
v 20.930622 14.928033 -3.632168
v 20.930939 14.944488 -3.630578
v 20.931875 14.960310 -3.625871
v 20.933395 14.974892 -3.618226
v 20.935442 14.987673 -3.607939
v 20.937935 14.998162 -3.595403
v 20.940781 15.005957 -3.581101
v 20.943867 15.010756 -3.565583
v 20.947077 14.845309 -3.565899
v 20.947077 14.850109 -3.581721
v 20.947077 14.857903 -3.596303
v 20.947077 14.868393 -3.609085
v 20.947077 14.881174 -3.619574
v 20.947077 14.895756 -3.627368
v 20.947077 14.911578 -3.632168
v 20.947077 14.928033 -3.633788
v 20.947077 14.944488 -3.632168
v 20.947077 14.960310 -3.627368
v 20.947077 14.974892 -3.619574
v 20.947077 14.987673 -3.609085
v 20.947077 14.998162 -3.596303
v 20.947077 15.005957 -3.581721
v 20.947077 15.010756 -3.565899
v 20.950287 14.845309 -3.565583
v 20.953373 14.850109 -3.581101
v 20.956219 14.857903 -3.595403
v 20.958712 14.868393 -3.607939
v 20.960758 14.881174 -3.618226
v 20.962278 14.895756 -3.625871
v 20.963215 14.911578 -3.630578
v 20.963531 14.928033 -3.632168
v 20.963215 14.944488 -3.630578
v 20.962278 14.960310 -3.625871
v 20.960758 14.974892 -3.618226
v 20.958712 14.987673 -3.607939
v 20.956219 14.998162 -3.595403
v 20.953373 15.005957 -3.581101
v 20.950287 15.010756 -3.565583
v 20.953373 14.845309 -3.564647
v 20.959429 14.850109 -3.579264
v 20.965010 14.857903 -3.592736
v 20.969900 14.868393 -3.604545
v 20.973915 14.881174 -3.614235
v 20.976896 14.895756 -3.621436
v 20.978733 14.911578 -3.625871
v 20.979355 14.928033 -3.627368
v 20.978733 14.944488 -3.625871
v 20.976896 14.960310 -3.621436
v 20.973915 14.974892 -3.614235
v 20.969900 14.987673 -3.604545
v 20.965010 14.998162 -3.592736
v 20.959429 15.005957 -3.579264
v 20.953373 15.010756 -3.564647
v 20.956219 14.845309 -3.563126
v 20.965010 14.850109 -3.576282
v 20.973110 14.857903 -3.588406
v 20.980211 14.868393 -3.599033
v 20.986038 14.881174 -3.607755
v 20.990370 14.895756 -3.614235
v 20.993036 14.911578 -3.618226
v 20.993937 14.928033 -3.619574
v 20.993036 14.944488 -3.618226
v 20.990370 14.960310 -3.614235
v 20.986038 14.974892 -3.607755
v 20.980211 14.987673 -3.599033
v 20.973110 14.998162 -3.588406
v 20.965010 15.005957 -3.576282
v 20.956219 15.010756 -3.563126
v 20.958712 14.845309 -3.561080
v 20.969900 14.850109 -3.572268
v 20.980211 14.857903 -3.582579
v 20.989248 14.868393 -3.591616
v 20.996666 14.881174 -3.599033
v 21.002178 14.895756 -3.604545
v 21.005571 14.911578 -3.607939
v 21.006718 14.928033 -3.609084
v 21.005571 14.944488 -3.607939
v 21.002178 14.960310 -3.604545
v 20.996666 14.974892 -3.599033
v 20.989248 14.987673 -3.591616
v 20.980211 14.998162 -3.582579
v 20.969900 15.005957 -3.572268
v 20.958712 15.010756 -3.561080
v 20.960758 14.845309 -3.558586
v 20.973915 14.850109 -3.567376
v 20.986038 14.857903 -3.575478
v 20.996666 14.868393 -3.582579
v 21.005388 14.881174 -3.588406
v 21.011868 14.895756 -3.592736
v 21.015860 14.911578 -3.595403
v 21.017206 14.928033 -3.596303
v 21.015860 14.944488 -3.595403
v 21.011868 14.960310 -3.592736
v 21.005388 14.974892 -3.588406
v 20.996666 14.987673 -3.582579
v 20.986038 14.998162 -3.575478
v 20.973915 15.005957 -3.567376
v 20.960758 15.010756 -3.558586
v 20.962278 14.845309 -3.555741
v 20.976896 14.850109 -3.561796
v 20.990370 14.857903 -3.567376
v 21.002178 14.868393 -3.572268
v 21.011868 14.881174 -3.576282
v 21.019070 14.895756 -3.579264
v 21.023504 14.911578 -3.581101
v 21.025002 14.928033 -3.581721
v 21.023504 14.944488 -3.581101
v 21.019070 14.960310 -3.579264
v 21.011868 14.974892 -3.576282
v 21.002178 14.987673 -3.572268
v 20.990370 14.998162 -3.567376
v 20.976896 15.005957 -3.561796
v 20.962278 15.010756 -3.555741
v 20.963215 14.845309 -3.552654
v 20.978733 14.850109 -3.555741
v 20.993036 14.857903 -3.558586
v 21.005571 14.868393 -3.561080
v 21.015860 14.881174 -3.563126
v 21.023504 14.895756 -3.564647
v 21.028212 14.911578 -3.565583
v 21.029800 14.928033 -3.565899
v 21.028212 14.944488 -3.565583
v 21.023504 14.960310 -3.564647
v 21.015860 14.974892 -3.563126
v 21.005571 14.987673 -3.561080
v 20.993036 14.998162 -3.558586
v 20.978733 15.005957 -3.555741
v 20.963215 15.010756 -3.552654
v 20.963531 14.845309 -3.549444
v 20.979353 14.850109 -3.549444
v 20.993937 14.857903 -3.549444
v 21.006718 14.868393 -3.549444
v 21.017206 14.881174 -3.549444
v 21.025002 14.895756 -3.549444
v 21.029800 14.911578 -3.549444
v 21.031422 14.928033 -3.549444
v 21.029800 14.944488 -3.549444
v 21.025002 14.960310 -3.549444
v 21.017206 14.974892 -3.549444
v 21.006718 14.987673 -3.549444
v 20.993937 14.998162 -3.549444
v 20.979353 15.005957 -3.549444
v 20.963531 15.010756 -3.549444
v 20.963215 14.845309 -3.546234
v 20.978733 14.850109 -3.543147
v 20.993036 14.857903 -3.540303
v 21.005571 14.868393 -3.537809
v 21.015860 14.881174 -3.535763
v 21.023504 14.895756 -3.534242
v 21.028212 14.911578 -3.533306
v 21.029800 14.928033 -3.532990
v 21.028212 14.944488 -3.533306
v 21.023504 14.960310 -3.534242
v 21.015860 14.974892 -3.535763
v 21.005571 14.987673 -3.537809
v 20.993036 14.998162 -3.540303
v 20.978733 15.005957 -3.543147
v 20.963215 15.010756 -3.546234
v 20.962278 14.845309 -3.543147
v 20.976896 14.850109 -3.537092
v 20.990370 14.857903 -3.531512
v 21.002178 14.868393 -3.526621
v 21.011868 14.881174 -3.522607
v 21.019070 14.895756 -3.519624
v 21.023502 14.911578 -3.517787
v 21.025000 14.928033 -3.517167
v 21.023502 14.944488 -3.517787
v 21.019070 14.960310 -3.519624
v 21.011868 14.974892 -3.522607
v 21.002178 14.987673 -3.526621
v 20.990370 14.998162 -3.531512
v 20.976896 15.005957 -3.537092
v 20.962278 15.010756 -3.543147
v 20.960758 14.845309 -3.540303
v 20.973915 14.850109 -3.531512
v 20.986038 14.857903 -3.523411
v 20.996666 14.868393 -3.516310
v 21.005388 14.881174 -3.510482
v 21.011868 14.895756 -3.506152
v 21.015860 14.911578 -3.503485
v 21.017206 14.928033 -3.502585
v 21.015860 14.944488 -3.503485
v 21.011868 14.960310 -3.506152
v 21.005388 14.974892 -3.510482
v 20.996666 14.987673 -3.516310
v 20.986038 14.998162 -3.523411
v 20.973915 15.005957 -3.531512
v 20.960758 15.010756 -3.540303
v 20.958712 14.845309 -3.537809
v 20.969900 14.850109 -3.526621
v 20.980211 14.857903 -3.516310
v 20.989248 14.868393 -3.507272
v 20.996666 14.881174 -3.499855
v 21.002178 14.895756 -3.494344
v 21.005571 14.911578 -3.490950
v 21.006718 14.928033 -3.489804
v 21.005571 14.944488 -3.490950
v 21.002178 14.960310 -3.494344
v 20.996666 14.974892 -3.499855
v 20.989248 14.987673 -3.507272
v 20.980211 14.998162 -3.516310
v 20.969900 15.005957 -3.526621
v 20.958712 15.010756 -3.537809
v 20.956219 14.845309 -3.535763
v 20.965010 14.850109 -3.522607
v 20.973110 14.857903 -3.510482
v 20.980211 14.868393 -3.499855
v 20.986038 14.881174 -3.491134
v 20.990370 14.895756 -3.484653
v 20.993036 14.911578 -3.480662
v 20.993937 14.928033 -3.479315
v 20.993036 14.944488 -3.480662
v 20.990370 14.960310 -3.484653
v 20.986038 14.974892 -3.491134
v 20.980211 14.987673 -3.499855
v 20.973110 14.998162 -3.510482
v 20.965010 15.005957 -3.522607
v 20.956219 15.010756 -3.535763
v 20.953373 14.845309 -3.534242
v 20.959429 14.850109 -3.519624
v 20.965010 14.857903 -3.506152
v 20.969900 14.868393 -3.494344
v 20.973915 14.881174 -3.484653
v 20.976896 14.895756 -3.477452
v 20.978733 14.911578 -3.473018
v 20.979353 14.928033 -3.471520
v 20.978733 14.944488 -3.473018
v 20.976896 14.960310 -3.477452
v 20.973915 14.974892 -3.484653
v 20.969900 14.987673 -3.494344
v 20.965010 14.998162 -3.506152
v 20.959429 15.005957 -3.519624
v 20.953373 15.010756 -3.534242
v 20.950287 14.845309 -3.533306
v 20.953373 14.850109 -3.517787
v 20.956219 14.857903 -3.503485
v 20.958712 14.868393 -3.490950
v 20.960758 14.881174 -3.480662
v 20.962278 14.895756 -3.473018
v 20.963215 14.911578 -3.468310
v 20.963531 14.928033 -3.466721
v 20.963215 14.944488 -3.468310
v 20.962278 14.960310 -3.473018
v 20.960758 14.974892 -3.480662
v 20.958712 14.987673 -3.490950
v 20.956219 14.998162 -3.503485
v 20.953373 15.005957 -3.517787
v 20.950287 15.010756 -3.533306
v 20.947077 14.845309 -3.532990
v 20.947077 14.850109 -3.517167
v 20.947077 14.868393 -3.489804
v 20.947077 14.895756 -3.471520
v 20.947077 14.960310 -3.471520
v 20.947077 14.987673 -3.489804
v 20.947077 14.998162 -3.502585
v 20.947077 15.005957 -3.517167
v 20.947077 15.010756 -3.532990
vn -0.0000 -0.3805 0.9248
vn -0.1804 -0.3805 0.9070
vn -0.1626 -0.5528 0.8173
vn -0.0000 0.8286 0.5598
vn -0.0000 0.9218 0.3878
vn -0.0757 0.9218 0.3803
vn -0.0000 -0.1939 0.9810
vn -0.1914 -0.1939 0.9622
vn -0.0000 0.9796 0.2009
vn -0.0392 0.9796 0.1972
vn -0.0000 -0.0000 1.0000
vn -0.1951 -0.0000 0.9808
vn -0.0000 -0.9796 0.2008
vn -0.0392 -0.9796 0.1971
vn -0.0000 -1.0000 -0.0000
vn -0.0000 1.0000 -0.0000
vn -0.0000 0.1939 0.9810
vn -0.1914 0.1939 0.9622
vn -0.0000 -0.9217 0.3878
vn -0.0757 -0.9217 0.3804
vn -0.0000 0.3805 0.9248
vn -0.1804 0.3805 0.9070
vn -0.0000 -0.8287 0.5597
vn -0.1092 -0.8286 0.5491
vn -0.0000 0.5528 0.8333
vn -0.1626 0.5528 0.8173
vn -0.0000 -0.7040 0.7102
vn -0.1385 -0.7040 0.6965
vn -0.0000 0.7041 0.7101
vn -0.1386 0.7040 0.6966
vn -0.0000 -0.5528 0.8333
vn -0.1092 0.8286 0.5491
vn -0.2718 0.7040 0.6561
vn -0.3189 -0.5528 0.7699
vn -0.2142 0.8287 0.5172
vn -0.3539 -0.3805 0.8544
vn -0.1484 0.9217 0.3583
vn -0.3754 -0.1940 0.9063
vn -0.0769 0.9796 0.1857
vn -0.3827 -0.0000 0.9239
vn -0.0769 -0.9796 0.1855
vn -0.3754 0.1939 0.9063
vn -0.1484 -0.9217 0.3584
vn -0.3538 0.3805 0.8544
vn -0.2142 -0.8286 0.5172
vn -0.3189 0.5528 0.7699
vn -0.2718 -0.7040 0.6561
vn -0.1116 0.9796 0.1671
vn -0.5450 0.1940 0.8157
vn -0.5556 -0.0000 0.8315
vn -0.2155 -0.9217 0.3224
vn -0.5137 0.3806 0.7689
vn -0.3110 -0.8287 0.4654
vn -0.4630 0.5528 0.6929
vn -0.3945 -0.7040 0.5905
vn -0.3945 0.7041 0.5905
vn -0.4630 -0.5528 0.6929
vn -0.3110 0.8287 0.4654
vn -0.5137 -0.3806 0.7689
vn -0.2155 0.9217 0.3225
vn -0.5450 -0.1939 0.8157
vn -0.1117 -0.9796 0.1671
vn -0.3958 0.8287 0.3958
vn -0.6539 -0.3805 0.6539
vn -0.2743 0.9217 0.2743
vn -0.6937 -0.1939 0.6937
vn -0.1421 0.9796 0.1419
vn -0.7071 -0.0000 0.7071
vn -0.1421 -0.9796 0.1423
vn -0.6937 0.1939 0.6937
vn -0.2743 -0.9217 0.2743
vn -0.6539 0.3806 0.6539
vn -0.3958 -0.8286 0.3958
vn -0.5893 0.5527 0.5893
vn -0.5022 -0.7040 0.5022
vn -0.5022 0.7040 0.5022
vn -0.5893 -0.5528 0.5893
vn -0.3225 -0.9217 0.2155
vn -0.7689 0.3805 0.5138
vn -0.4654 -0.8286 0.3110
vn -0.6929 0.5527 0.4630
vn -0.5904 -0.7041 0.3946
vn -0.5904 0.7041 0.3946
vn -0.6929 -0.5527 0.4630
vn -0.4654 0.8287 0.3110
vn -0.7689 -0.3805 0.5138
vn -0.3225 0.9217 0.2156
vn -0.8157 -0.1939 0.5450
vn -0.1671 0.9796 0.1115
vn -0.8315 -0.0000 0.5556
vn -0.1671 -0.9796 0.1116
vn -0.8157 0.1939 0.5450
vn -0.8544 -0.3805 0.3539
vn -0.3583 0.9217 0.1484
vn -0.9063 -0.1940 0.3754
vn -0.1856 0.9796 0.0768
vn -0.9239 -0.0000 0.3827
vn -0.1857 -0.9796 0.0767
vn -0.9064 0.1937 0.3754
vn -0.3583 -0.9217 0.1484
vn -0.8544 0.3805 0.3539
vn -0.5172 -0.8286 0.2142
vn -0.7699 0.5527 0.3189
vn -0.6561 -0.7041 0.2718
vn -0.6561 0.7041 0.2717
vn -0.7699 -0.5527 0.3189
vn -0.5171 0.8287 0.2142
vn -0.9070 0.3805 0.1804
vn -0.5490 -0.8287 0.1092
vn -0.8173 0.5528 0.1626
vn -0.6966 -0.7040 0.1386
vn -0.6966 0.7040 0.1386
vn -0.8173 -0.5528 0.1626
vn -0.5490 0.8287 0.1092
vn -0.9070 -0.3805 0.1804
vn -0.3804 0.9217 0.0757
vn -0.9622 -0.1939 0.1914
vn -0.1972 0.9796 0.0390
vn -0.9808 -0.0000 0.1951
vn -0.1971 -0.9796 0.0392
vn -0.9622 0.1939 0.1914
vn -0.3804 -0.9217 0.0757
vn -0.3878 0.9217 -0.0000
vn -0.9810 -0.1939 -0.0000
vn -0.9247 -0.3806 -0.0000
vn -0.2011 0.9796 -0.0002
vn -1.0000 -0.0000 -0.0000
vn -0.2009 -0.9796 -0.0000
vn -0.9810 0.1939 -0.0000
vn -0.3879 -0.9217 0.0001
vn -0.9247 0.3806 -0.0000
vn -0.5598 -0.8287 -0.0001
vn -0.8333 0.5529 -0.0000
vn -0.7102 -0.7040 -0.0000
vn -0.7102 0.7040 -0.0000
vn -0.8333 -0.5529 -0.0000
vn -0.5597 0.8287 -0.0000
vn -0.5490 -0.8287 -0.1092
vn -0.8173 0.5528 -0.1625
vn -0.9070 0.3806 -0.1804
vn -0.6965 -0.7040 -0.1385
vn -0.6965 0.7040 -0.1386
vn -0.8173 -0.5528 -0.1626
vn -0.5490 0.8287 -0.1091
vn -0.9070 -0.3806 -0.1804
vn -0.3804 0.9217 -0.0757
vn -0.9622 -0.1939 -0.1914
vn -0.1971 0.9796 -0.0392
vn -0.9808 -0.0000 -0.1951
vn -0.1971 -0.9796 -0.0393
vn -0.9622 0.1939 -0.1914
vn -0.3804 -0.9217 -0.0756
vn -0.9063 -0.1940 -0.3754
vn -0.8543 -0.3806 -0.3539
vn -0.1857 0.9796 -0.0769
vn -0.3584 0.9217 -0.1484
vn -0.9239 -0.0000 -0.3827
vn -0.1856 -0.9796 -0.0767
vn -0.9063 0.1940 -0.3754
vn -0.3584 -0.9217 -0.1484
vn -0.8543 0.3806 -0.3540
vn -0.5171 -0.8287 -0.2142
vn -0.7699 0.5527 -0.3189
vn -0.6561 -0.7040 -0.2718
vn -0.6561 0.7040 -0.2718
vn -0.7699 -0.5527 -0.3189
vn -0.5174 0.8285 -0.2142
vn -0.6929 0.5528 -0.4629
vn -0.7689 0.3805 -0.5137
vn -0.5905 -0.7040 -0.3946
vn -0.5904 0.7041 -0.3946
vn -0.6929 -0.5528 -0.4630
vn -0.4654 0.8287 -0.3110
vn -0.7689 -0.3805 -0.5137
vn -0.3225 0.9217 -0.2155
vn -0.8157 -0.1939 -0.5450
vn -0.1671 0.9796 -0.1115
vn -0.8315 -0.0000 -0.5556
vn -0.1670 -0.9796 -0.1115
vn -0.8157 0.1939 -0.5450
vn -0.3225 -0.9217 -0.2155
vn -0.4654 -0.8287 -0.3110
vn -0.1421 0.9796 -0.1420
vn -0.2743 0.9217 -0.2743
vn -0.7071 -0.0000 -0.7071
vn -0.6937 -0.1940 -0.6937
vn -0.1421 -0.9796 -0.1423
vn -0.6937 0.1940 -0.6937
vn -0.2743 -0.9217 -0.2743
vn -0.6539 0.3805 -0.6539
vn -0.3958 -0.8287 -0.3958
vn -0.5892 0.5528 -0.5893
vn -0.5022 -0.7040 -0.5022
vn -0.5021 0.7040 -0.5022
vn -0.5892 -0.5528 -0.5893
vn -0.3958 0.8286 -0.3958
vn -0.6539 -0.3805 -0.6539
vn -0.3945 0.7041 -0.5904
vn -0.4630 -0.5528 -0.6929
vn -0.3946 -0.7041 -0.5904
vn -0.3110 0.8287 -0.4654
vn -0.5137 -0.3806 -0.7689
vn -0.2155 0.9217 -0.3226
vn -0.5450 -0.1940 -0.8157
vn -0.1117 0.9796 -0.1671
vn -0.5555 -0.0000 -0.8315
vn -0.1117 -0.9796 -0.1672
vn -0.5450 0.1940 -0.8157
vn -0.2155 -0.9217 -0.3225
vn -0.5137 0.3806 -0.7689
vn -0.3110 -0.8286 -0.4654
vn -0.4630 0.5528 -0.6929
vn -0.0769 -0.9796 -0.1856
vn -0.0769 0.9796 -0.1856
vn -0.3754 0.1940 -0.9063
vn -0.1484 -0.9217 -0.3583
vn -0.3539 0.3806 -0.8544
vn -0.2143 -0.8286 -0.5172
vn -0.3189 0.5528 -0.7699
vn -0.2718 -0.7041 -0.6561
vn -0.2718 0.7041 -0.6561
vn -0.3189 -0.5528 -0.7699
vn -0.2143 0.8286 -0.5172
vn -0.3539 -0.3806 -0.8544
vn -0.1484 0.9217 -0.3584
vn -0.3754 -0.1940 -0.9063
vn -0.3826 -0.0000 -0.9239
vn -0.1626 -0.5528 -0.8173
vn -0.1385 -0.7041 -0.6965
vn -0.1092 0.8286 -0.5491
vn -0.1385 0.7041 -0.6965
vn -0.1804 -0.3805 -0.9070
vn -0.0757 0.9217 -0.3804
vn -0.1914 -0.1939 -0.9622
vn -0.0392 0.9796 -0.1971
vn -0.1951 -0.0000 -0.9808
vn -0.0392 -0.9796 -0.1971
vn -0.1914 0.1939 -0.9622
vn -0.0756 -0.9217 -0.3803
vn -0.1804 0.3805 -0.9070
vn -0.1092 -0.8286 -0.5491
vn -0.1626 0.5528 -0.8173
vn -0.0000 0.1940 -0.9810
vn -0.0000 -0.9217 -0.3879
vn -0.0000 0.3805 -0.9248
vn -0.0000 -0.8287 -0.5597
vn -0.0000 0.5528 -0.8333
vn -0.0000 -0.7041 -0.7101
vn -0.0000 0.7041 -0.7101
vn -0.0000 -0.5528 -0.8333
vn -0.0000 0.8287 -0.5597
vn -0.0000 -0.3805 -0.9248
vn -0.0000 0.9217 -0.3878
vn -0.0000 -0.1940 -0.9810
vn -0.0000 0.9796 -0.2012
vn -0.0000 -0.0000 -1.0000
vn -0.0000 -0.9796 -0.2010
vn 0.1092 0.8286 -0.5490
vn 0.1386 0.7039 -0.6966
vn 0.1804 -0.3805 -0.9070
vn 0.0756 0.9218 -0.3803
vn 0.1914 -0.1939 -0.9622
vn 0.0392 0.9796 -0.1972
vn 0.1951 -0.0000 -0.9808
vn 0.0392 -0.9796 -0.1971
vn 0.1914 0.1939 -0.9622
vn 0.0757 -0.9217 -0.3804
vn 0.1804 0.3805 -0.9070
vn 0.1092 -0.8287 -0.5490
vn 0.1626 0.5528 -0.8173
vn 0.1386 -0.7040 -0.6966
vn 0.1626 -0.5528 -0.8173
vn 0.1484 -0.9217 -0.3583
vn 0.0769 -0.9796 -0.1856
vn 0.3539 0.3805 -0.8544
vn 0.2142 -0.8287 -0.5171
vn 0.3189 0.5528 -0.7699
vn 0.2718 -0.7040 -0.6561
vn 0.2718 0.7040 -0.6561
vn 0.3189 -0.5528 -0.7699
vn 0.2142 0.8286 -0.5172
vn 0.3539 -0.3805 -0.8544
vn 0.1484 0.9217 -0.3583
vn 0.3754 -0.1939 -0.9064
vn 0.0769 0.9796 -0.1856
vn 0.3827 -0.0000 -0.9239
vn 0.3754 0.1939 -0.9064
vn 0.5137 -0.3806 -0.7689
vn 0.2155 0.9217 -0.3225
vn 0.5450 -0.1940 -0.8157
vn 0.1116 0.9796 -0.1670
vn 0.5556 -0.0000 -0.8315
vn 0.1117 -0.9796 -0.1671
vn 0.5450 0.1940 -0.8157
vn 0.2155 -0.9217 -0.3225
vn 0.5137 0.3806 -0.7689
vn 0.3110 -0.8287 -0.4654
vn 0.4630 0.5528 -0.6929
vn 0.3945 -0.7041 -0.5904
vn 0.3945 0.7041 -0.5904
vn 0.4630 -0.5528 -0.6929
vn 0.3110 0.8286 -0.4655
vn 0.6539 0.3806 -0.6539
vn 0.3958 -0.8286 -0.3959
vn 0.5892 0.5528 -0.5893
vn 0.5022 -0.7040 -0.5022
vn 0.5021 0.7040 -0.5022
vn 0.5892 -0.5528 -0.5893
vn 0.3958 0.8286 -0.3958
vn 0.6539 -0.3806 -0.6539
vn 0.2743 0.9217 -0.2743
vn 0.6937 -0.1939 -0.6937
vn 0.1422 0.9796 -0.1420
vn 0.7071 -0.0000 -0.7071
vn 0.1421 -0.9796 -0.1423
vn 0.6937 0.1939 -0.6937
vn 0.2743 -0.9217 -0.2742
vn 0.3225 0.9217 -0.2155
vn 0.8157 -0.1939 -0.5450
vn 0.7689 -0.3805 -0.5138
vn 0.1671 0.9796 -0.1116
vn 0.8315 -0.0000 -0.5556
vn 0.1671 -0.9796 -0.1116
vn 0.8157 0.1939 -0.5450
vn 0.3225 -0.9217 -0.2155
vn 0.7689 0.3805 -0.5138
vn 0.4654 -0.8286 -0.3110
vn 0.6929 0.5528 -0.4630
vn 0.5905 -0.7040 -0.3946
vn 0.5904 0.7041 -0.3946
vn 0.6929 -0.5528 -0.4630
vn 0.4654 0.8286 -0.3110
vn 0.7699 0.5527 -0.3189
vn 0.8543 0.3806 -0.3539
vn 0.6561 -0.7040 -0.2718
vn 0.6561 0.7040 -0.2718
vn 0.7699 -0.5528 -0.3189
vn 0.5171 0.8286 -0.2143
vn 0.8543 -0.3806 -0.3539
vn 0.3584 0.9217 -0.1484
vn 0.9063 -0.1940 -0.3754
vn 0.1857 0.9796 -0.0770
vn 0.9239 -0.0000 -0.3827
vn 0.1857 -0.9796 -0.0768
vn 0.9063 0.1940 -0.3754
vn 0.3583 -0.9217 -0.1484
vn 0.5172 -0.8287 -0.2142
vn 0.1971 0.9796 -0.0390
vn 0.9808 -0.0000 -0.1951
vn 0.9622 -0.1939 -0.1914
vn 0.1971 -0.9796 -0.0391
vn 0.9622 0.1939 -0.1914
vn 0.3804 -0.9217 -0.0756
vn 0.9070 0.3805 -0.1804
vn 0.5490 -0.8287 -0.1092
vn 0.8173 0.5528 -0.1626
vn 0.6965 -0.7040 -0.1386
vn 0.6965 0.7040 -0.1386
vn 0.8173 -0.5528 -0.1626
vn 0.5490 0.8287 -0.1092
vn 0.9070 -0.3805 -0.1804
vn 0.3804 0.9217 -0.0757
vn 0.7102 -0.7040 -0.0000
vn 0.7102 0.7040 0.0001
vn 0.8333 -0.5528 -0.0000
vn 0.5598 0.8287 -0.0000
vn 0.9247 -0.3806 -0.0000
vn 0.3878 0.9217 -0.0000
vn 0.9810 -0.1938 -0.0000
vn 0.2011 0.9796 0.0002
vn 1.0000 -0.0000 -0.0000
vn 0.2010 -0.9796 0.0001
vn 0.9810 0.1938 -0.0000
vn 0.3878 -0.9217 -0.0000
vn 0.9247 0.3806 -0.0000
vn 0.5597 -0.8287 -0.0000
vn 0.8333 0.5528 -0.0000
vn 0.9808 -0.0000 0.1952
vn 0.9622 -0.1939 0.1914
vn 0.1971 -0.9796 0.0393
vn 0.1971 0.9796 0.0392
vn 0.9622 0.1939 0.1914
vn 0.3804 -0.9217 0.0757
vn 0.9070 0.3806 0.1804
vn 0.5490 -0.8287 0.1091
vn 0.8173 0.5527 0.1626
vn 0.6965 -0.7040 0.1385
vn 0.6965 0.7040 0.1386
vn 0.8173 -0.5527 0.1626
vn 0.5490 0.8287 0.1091
vn 0.9070 -0.3806 0.1804
vn 0.3803 0.9217 0.0757
vn 0.6561 0.7040 0.2718
vn 0.7699 -0.5527 0.3189
vn 0.6562 -0.7040 0.2718
vn 0.5171 0.8287 0.2142
vn 0.8543 -0.3806 0.3540
vn 0.3583 0.9217 0.1484
vn 0.9063 -0.1939 0.3754
vn 0.1857 0.9796 0.0769
vn 0.9239 -0.0000 0.3827
vn 0.1857 -0.9796 0.0767
vn 0.9063 0.1939 0.3754
vn 0.3583 -0.9217 0.1484
vn 0.8543 0.3806 0.3539
vn 0.5171 -0.8287 0.2142
vn 0.7699 0.5527 0.3189
vn 0.1671 -0.9796 0.1116
vn 0.1671 0.9796 0.1114
vn 0.8157 0.1939 0.5450
vn 0.3225 -0.9217 0.2154
vn 0.7690 0.3805 0.5138
vn 0.4654 -0.8286 0.3110
vn 0.6929 0.5527 0.4629
vn 0.5905 -0.7040 0.3946
vn 0.5905 0.7040 0.3946
vn 0.6929 -0.5527 0.4630
vn 0.4654 0.8286 0.3111
vn 0.7689 -0.3805 0.5138
vn 0.3225 0.9217 0.2155
vn 0.8157 -0.1939 0.5450
vn 0.8315 -0.0000 0.5556
vn 0.5892 -0.5528 0.5893
vn 0.5021 -0.7040 0.5022
vn 0.3958 0.8286 0.3958
vn 0.5021 0.7040 0.5022
vn 0.6539 -0.3805 0.6539
vn 0.2743 0.9217 0.2743
vn 0.6937 -0.1940 0.6937
vn 0.1421 0.9796 0.1420
vn 0.7071 -0.0000 0.7071
vn 0.1421 -0.9796 0.1423
vn 0.6937 0.1940 0.6937
vn 0.2743 -0.9217 0.2742
vn 0.6539 0.3805 0.6539
vn 0.3958 -0.8287 0.3958
vn 0.5892 0.5528 0.5893
vn 0.5450 0.1939 0.8157
vn 0.2155 -0.9217 0.3225
vn 0.5138 0.3805 0.7689
vn 0.3110 -0.8286 0.4655
vn 0.4630 0.5528 0.6929
vn 0.3945 -0.7041 0.5904
vn 0.3945 0.7041 0.5904
vn 0.4630 -0.5528 0.6929
vn 0.3110 0.8286 0.4654
vn 0.5138 -0.3805 0.7689
vn 0.2155 0.9217 0.3226
vn 0.5450 -0.1940 0.8157
vn 0.1116 0.9796 0.1671
vn 0.5555 -0.0000 0.8315
vn 0.1116 -0.9796 0.1671
vn 0.2143 0.8286 0.5172
vn 0.2717 0.7041 0.6561
vn 0.3539 -0.3805 0.8544
vn 0.1484 0.9217 0.3584
vn 0.3754 -0.1940 0.9063
vn 0.0769 0.9796 0.1855
vn 0.3827 -0.0000 0.9239
vn 0.0769 -0.9796 0.1855
vn 0.3754 0.1940 0.9063
vn 0.1484 -0.9217 0.3583
vn 0.3539 0.3805 0.8544
vn 0.2143 -0.8286 0.5173
vn 0.3189 0.5528 0.7699
vn 0.2718 -0.7041 0.6560
vn 0.3189 -0.5528 0.7699
vn 0.1804 0.3805 0.9070
vn 0.1092 -0.8286 0.5490
vn 0.0757 -0.9217 0.3804
vn 0.1626 0.5528 0.8173
vn 0.1385 -0.7040 0.6965
vn 0.1385 0.7041 0.6965
vn 0.1626 -0.5528 0.8173
vn 0.1092 0.8286 0.5491
vn 0.1804 -0.3805 0.9070
vn 0.0757 0.9217 0.3804
vn 0.1914 -0.1939 0.9622
vn 0.0392 0.9796 0.1971
vn 0.1951 -0.0000 0.9808
vn 0.0392 -0.9796 0.1971
vn 0.1914 0.1939 0.9622
vt 0.750000 0.625000
vt 0.718750 0.625000
vt 0.718750 0.687500
vt 0.750000 0.187500
vt 0.750000 0.125000
vt 0.718750 0.125000
vt 0.750000 0.562500
vt 0.718750 0.562500
vt 0.750000 0.062500
vt 0.718750 0.062500
vt 0.750000 0.500000
vt 0.718750 0.500000
vt 0.750000 0.937500
vt 0.718750 0.937500
vt 0.734375 1.000000
vt 0.734375 0.000000
vt 0.750000 0.437500
vt 0.718750 0.437500
vt 0.750000 0.875000
vt 0.718750 0.875000
vt 0.750000 0.375000
vt 0.718750 0.375000
vt 0.750000 0.812500
vt 0.718750 0.812500
vt 0.750000 0.312500
vt 0.718750 0.312500
vt 0.750000 0.750000
vt 0.718750 0.750000
vt 0.750000 0.250000
vt 0.718750 0.250000
vt 0.750000 0.687500
vt 0.718750 0.187500
vt 0.687500 0.250000
vt 0.687500 0.687500
vt 0.687500 0.187500
vt 0.687500 0.625000
vt 0.687500 0.125000
vt 0.687500 0.562500
vt 0.687500 0.062500
vt 0.687500 0.500000
vt 0.687500 0.937500
vt 0.703125 1.000000
vt 0.703125 0.000000
vt 0.687500 0.437500
vt 0.687500 0.875000
vt 0.687500 0.375000
vt 0.687500 0.812500
vt 0.687500 0.312500
vt 0.687500 0.750000
vt 0.671875 0.000000
vt 0.656250 0.062500
vt 0.656250 0.437500
vt 0.656250 0.500000
vt 0.656250 0.875000
vt 0.656250 0.375000
vt 0.656250 0.812500
vt 0.656250 0.312500
vt 0.656250 0.750000
vt 0.656250 0.250000
vt 0.656250 0.687500
vt 0.656250 0.187500
vt 0.656250 0.625000
vt 0.656250 0.125000
vt 0.656250 0.562500
vt 0.656250 0.937500
vt 0.671875 1.000000
vt 0.625000 0.187500
vt 0.625000 0.625000
vt 0.625000 0.125000
vt 0.625000 0.562500
vt 0.625000 0.062500
vt 0.625000 0.500000
vt 0.625000 0.937500
vt 0.640625 1.000000
vt 0.640625 0.000000
vt 0.625000 0.437500
vt 0.625000 0.875000
vt 0.625000 0.375000
vt 0.625000 0.812500
vt 0.625000 0.312500
vt 0.625000 0.750000
vt 0.625000 0.250000
vt 0.625000 0.687500
vt 0.593750 0.875000
vt 0.593750 0.375000
vt 0.593750 0.812500
vt 0.593750 0.312500
vt 0.593750 0.750000
vt 0.593750 0.250000
vt 0.593750 0.687500
vt 0.593750 0.187500
vt 0.593750 0.625000
vt 0.593750 0.125000
vt 0.593750 0.562500
vt 0.593750 0.062500
vt 0.593750 0.500000
vt 0.593750 0.937500
vt 0.609375 1.000000
vt 0.609375 0.000000
vt 0.593750 0.437500
vt 0.562500 0.625000
vt 0.562500 0.125000
vt 0.562500 0.562500
vt 0.562500 0.062500
vt 0.562500 0.500000
vt 0.562500 0.937500
vt 0.578125 1.000000
vt 0.578125 0.000000
vt 0.562500 0.437500
vt 0.562500 0.875000
vt 0.562500 0.375000
vt 0.562500 0.812500
vt 0.562500 0.312500
vt 0.562500 0.750000
vt 0.562500 0.250000
vt 0.562500 0.687500
vt 0.562500 0.187500
vt 0.531250 0.375000
vt 0.531250 0.812500
vt 0.531250 0.312500
vt 0.531250 0.750000
vt 0.531250 0.250000
vt 0.531250 0.687500
vt 0.531250 0.187500
vt 0.531250 0.625000
vt 0.531250 0.125000
vt 0.531250 0.562500
vt 0.531250 0.062500
vt 0.531250 0.500000
vt 0.531250 0.937500
vt 0.546875 1.000000
vt 0.546875 0.000000
vt 0.531250 0.437500
vt 0.531250 0.875000
vt 0.500000 0.125000
vt 0.500000 0.562500
vt 0.500000 0.625000
vt 0.500000 0.062500
vt 0.500000 0.500000
vt 0.500000 0.937500
vt 0.515625 1.000000
vt 0.515625 0.000000
vt 0.500000 0.437500
vt 0.500000 0.875000
vt 0.500000 0.375000
vt 0.500000 0.812500
vt 0.500000 0.312500
vt 0.500000 0.750000
vt 0.500000 0.250000
vt 0.500000 0.687500
vt 0.500000 0.187500
vt 0.468750 0.812500
vt 0.468750 0.312500
vt 0.468750 0.375000
vt 0.468750 0.750000
vt 0.468750 0.250000
vt 0.468750 0.687500
vt 0.468750 0.187500
vt 0.468750 0.625000
vt 0.468750 0.125000
vt 0.468750 0.562500
vt 0.468750 0.062500
vt 0.468750 0.500000
vt 0.468750 0.937500
vt 0.484375 1.000000
vt 0.484375 0.000000
vt 0.468750 0.437500
vt 0.468750 0.875000
vt 0.437500 0.562500
vt 0.437500 0.625000
vt 0.437500 0.062500
vt 0.437500 0.125000
vt 0.437500 0.500000
vt 0.437500 0.937500
vt 0.453125 1.000000
vt 0.453125 0.000000
vt 0.437500 0.437500
vt 0.437500 0.875000
vt 0.437500 0.375000
vt 0.437500 0.812500
vt 0.437500 0.312500
vt 0.437500 0.750000
vt 0.437500 0.250000
vt 0.437500 0.687500
vt 0.437500 0.187500
vt 0.406250 0.312500
vt 0.406250 0.375000
vt 0.406250 0.750000
vt 0.406250 0.250000
vt 0.406250 0.687500
vt 0.406250 0.187500
vt 0.406250 0.625000
vt 0.406250 0.125000
vt 0.406250 0.562500
vt 0.406250 0.062500
vt 0.406250 0.500000
vt 0.406250 0.937500
vt 0.421875 1.000000
vt 0.421875 0.000000
vt 0.406250 0.437500
vt 0.406250 0.875000
vt 0.406250 0.812500
vt 0.375000 0.062500
vt 0.375000 0.125000
vt 0.375000 0.500000
vt 0.375000 0.562500
vt 0.375000 0.937500
vt 0.390625 1.000000
vt 0.390625 0.000000
vt 0.375000 0.437500
vt 0.375000 0.875000
vt 0.375000 0.375000
vt 0.375000 0.812500
vt 0.375000 0.312500
vt 0.375000 0.750000
vt 0.375000 0.250000
vt 0.375000 0.687500
vt 0.375000 0.187500
vt 0.375000 0.625000
vt 0.343750 0.250000
vt 0.343750 0.687500
vt 0.343750 0.750000
vt 0.343750 0.187500
vt 0.343750 0.625000
vt 0.343750 0.125000
vt 0.343750 0.562500
vt 0.343750 0.062500
vt 0.343750 0.500000
vt 0.343750 0.937500
vt 0.359375 1.000000
vt 0.359375 0.000000
vt 0.343750 0.437500
vt 0.343750 0.875000
vt 0.343750 0.375000
vt 0.343750 0.812500
vt 0.343750 0.312500
vt 0.312500 0.937500
vt 0.328125 1.000000
vt 0.328125 0.000000
vt 0.312500 0.062500
vt 0.312500 0.437500
vt 0.312500 0.875000
vt 0.312500 0.375000
vt 0.312500 0.812500
vt 0.312500 0.312500
vt 0.312500 0.750000
vt 0.312500 0.250000
vt 0.312500 0.687500
vt 0.312500 0.187500
vt 0.312500 0.625000
vt 0.312500 0.125000
vt 0.312500 0.562500
vt 0.312500 0.500000
vt 0.281250 0.687500
vt 0.281250 0.750000
vt 0.281250 0.187500
vt 0.281250 0.250000
vt 0.281250 0.625000
vt 0.281250 0.125000
vt 0.281250 0.562500
vt 0.281250 0.062500
vt 0.281250 0.500000
vt 0.281250 0.937500
vt 0.296875 1.000000
vt 0.296875 0.000000
vt 0.281250 0.437500
vt 0.281250 0.875000
vt 0.281250 0.375000
vt 0.281250 0.812500
vt 0.281250 0.312500
vt 0.250000 0.437500
vt 0.250000 0.875000
vt 0.250000 0.375000
vt 0.250000 0.812500
vt 0.250000 0.312500
vt 0.250000 0.750000
vt 0.250000 0.250000
vt 0.250000 0.687500
vt 0.250000 0.187500
vt 0.250000 0.625000
vt 0.250000 0.125000
vt 0.250000 0.562500
vt 0.250000 0.062500
vt 0.250000 0.500000
vt 0.250000 0.937500
vt 0.265625 1.000000
vt 0.265625 0.000000
vt 0.218750 0.187500
vt 0.218750 0.250000
vt 0.218750 0.625000
vt 0.218750 0.125000
vt 0.218750 0.562500
vt 0.218750 0.062500
vt 0.218750 0.500000
vt 0.218750 0.937500
vt 0.234375 1.000000
vt 0.234375 0.000000
vt 0.218750 0.437500
vt 0.218750 0.875000
vt 0.218750 0.375000
vt 0.218750 0.812500
vt 0.218750 0.312500
vt 0.218750 0.750000
vt 0.218750 0.687500
vt 0.187500 0.875000
vt 0.187500 0.937500
vt 0.187500 0.375000
vt 0.187500 0.812500
vt 0.187500 0.312500
vt 0.187500 0.750000
vt 0.187500 0.250000
vt 0.187500 0.687500
vt 0.187500 0.187500
vt 0.187500 0.625000
vt 0.187500 0.125000
vt 0.187500 0.562500
vt 0.187500 0.062500
vt 0.187500 0.500000
vt 0.203125 1.000000
vt 0.203125 0.000000
vt 0.187500 0.437500
vt 0.156250 0.625000
vt 0.156250 0.125000
vt 0.156250 0.562500
vt 0.156250 0.062500
vt 0.156250 0.500000
vt 0.156250 0.937500
vt 0.171875 1.000000
vt 0.171875 0.000000
vt 0.156250 0.437500
vt 0.156250 0.875000
vt 0.156250 0.375000
vt 0.156250 0.812500
vt 0.156250 0.312500
vt 0.156250 0.750000
vt 0.156250 0.250000
vt 0.156250 0.687500
vt 0.156250 0.187500
vt 0.125000 0.375000
vt 0.125000 0.812500
vt 0.125000 0.312500
vt 0.125000 0.750000
vt 0.125000 0.250000
vt 0.125000 0.687500
vt 0.125000 0.187500
vt 0.125000 0.625000
vt 0.125000 0.125000
vt 0.125000 0.562500
vt 0.125000 0.062500
vt 0.125000 0.500000
vt 0.125000 0.937500
vt 0.140625 1.000000
vt 0.140625 0.000000
vt 0.125000 0.437500
vt 0.125000 0.875000
vt 0.093750 0.125000
vt 0.093750 0.562500
vt 0.093750 0.625000
vt 0.093750 0.062500
vt 0.093750 0.500000
vt 0.093750 0.937500
vt 0.109375 1.000000
vt 0.109375 0.000000
vt 0.093750 0.437500
vt 0.093750 0.875000
vt 0.093750 0.375000
vt 0.093750 0.812500
vt 0.093750 0.312500
vt 0.093750 0.750000
vt 0.093750 0.250000
vt 0.093750 0.687500
vt 0.093750 0.187500
vt 0.062500 0.312500
vt 0.062500 0.375000
vt 0.062500 0.750000
vt 0.062500 0.250000
vt 0.062500 0.687500
vt 0.062500 0.187500
vt 0.062500 0.625000
vt 0.062500 0.125000
vt 0.062500 0.562500
vt 0.062500 0.062500
vt 0.062500 0.500000
vt 0.062500 0.937500
vt 0.078125 1.000000
vt 0.078125 0.000000
vt 0.062500 0.437500
vt 0.062500 0.875000
vt 0.062500 0.812500
vt 0.031250 0.062500
vt 0.031250 0.500000
vt 0.031250 0.562500
vt 0.031250 0.937500
vt 0.046875 1.000000
vt 0.046875 0.000000
vt 0.031250 0.437500
vt 0.031250 0.875000
vt 0.031250 0.375000
vt 0.031250 0.812500
vt 0.031250 0.312500
vt 0.031250 0.750000
vt 0.031250 0.250000
vt 0.031250 0.687500
vt 0.031250 0.187500
vt 0.031250 0.625000
vt 0.031250 0.125000
vt 0.000000 0.750000
vt 0.000000 0.250000
vt 0.000000 0.687500
vt 0.000000 0.187500
vt 0.000000 0.625000
vt 0.000000 0.125000
vt 0.000000 0.562500
vt 0.000000 0.062500
vt 0.000000 0.500000
vt 0.000000 0.937500
vt 0.015625 1.000000
vt 0.015625 0.000000
vt 0.000000 0.437500
vt 0.000000 0.875000
vt 0.000000 0.375000
vt 0.000000 0.812500
vt 0.000000 0.312500
vt 1.000000 0.500000
vt 0.968750 0.500000
vt 0.968750 0.562500
vt 1.000000 0.937500
vt 0.968750 0.937500
vt 0.984375 1.000000
vt 0.984375 0.000000
vt 0.968750 0.062500
vt 1.000000 0.062500
vt 1.000000 0.437500
vt 0.968750 0.437500
vt 1.000000 0.875000
vt 0.968750 0.875000
vt 1.000000 0.375000
vt 0.968750 0.375000
vt 1.000000 0.812500
vt 0.968750 0.812500
vt 1.000000 0.312500
vt 0.968750 0.312500
vt 1.000000 0.750000
vt 0.968750 0.750000
vt 1.000000 0.250000
vt 0.968750 0.250000
vt 1.000000 0.687500
vt 0.968750 0.687500
vt 1.000000 0.187500
vt 0.968750 0.187500
vt 1.000000 0.625000
vt 0.968750 0.625000
vt 1.000000 0.125000
vt 0.968750 0.125000
vt 1.000000 0.562500
vt 0.937500 0.250000
vt 0.937500 0.687500
vt 0.937500 0.750000
vt 0.937500 0.187500
vt 0.937500 0.625000
vt 0.937500 0.125000
vt 0.937500 0.562500
vt 0.937500 0.062500
vt 0.937500 0.500000
vt 0.937500 0.937500
vt 0.953125 1.000000
vt 0.953125 0.000000
vt 0.937500 0.437500
vt 0.937500 0.875000
vt 0.937500 0.375000
vt 0.937500 0.812500
vt 0.937500 0.312500
vt 0.906250 0.937500
vt 0.921875 1.000000
vt 0.921875 0.000000
vt 0.906250 0.062500
vt 0.906250 0.437500
vt 0.906250 0.875000
vt 0.906250 0.375000
vt 0.906250 0.812500
vt 0.906250 0.312500
vt 0.906250 0.750000
vt 0.906250 0.250000
vt 0.906250 0.687500
vt 0.906250 0.187500
vt 0.906250 0.625000
vt 0.906250 0.125000
vt 0.906250 0.562500
vt 0.906250 0.500000
vt 0.875000 0.687500
vt 0.875000 0.750000
vt 0.875000 0.187500
vt 0.875000 0.250000
vt 0.875000 0.625000
vt 0.875000 0.125000
vt 0.875000 0.562500
vt 0.875000 0.062500
vt 0.875000 0.500000
vt 0.875000 0.937500
vt 0.890625 1.000000
vt 0.890625 0.000000
vt 0.875000 0.437500
vt 0.875000 0.875000
vt 0.875000 0.375000
vt 0.875000 0.812500
vt 0.875000 0.312500
vt 0.843750 0.437500
vt 0.843750 0.875000
vt 0.843750 0.375000
vt 0.843750 0.812500
vt 0.843750 0.312500
vt 0.843750 0.750000
vt 0.843750 0.250000
vt 0.843750 0.687500
vt 0.843750 0.187500
vt 0.843750 0.625000
vt 0.843750 0.125000
vt 0.843750 0.562500
vt 0.843750 0.062500
vt 0.843750 0.500000
vt 0.843750 0.937500
vt 0.859375 1.000000
vt 0.859375 0.000000
vt 0.812500 0.187500
vt 0.812500 0.250000
vt 0.812500 0.625000
vt 0.812500 0.125000
vt 0.812500 0.562500
vt 0.812500 0.062500
vt 0.812500 0.500000
vt 0.812500 0.937500
vt 0.828125 1.000000
vt 0.828125 0.000000
vt 0.812500 0.437500
vt 0.812500 0.875000
vt 0.812500 0.375000
vt 0.812500 0.812500
vt 0.812500 0.312500
vt 0.812500 0.750000
vt 0.812500 0.687500
vt 0.781250 0.375000
vt 0.781250 0.812500
vt 0.781250 0.875000
vt 0.781250 0.312500
vt 0.781250 0.750000
vt 0.781250 0.250000
vt 0.781250 0.687500
vt 0.781250 0.187500
vt 0.781250 0.625000
vt 0.781250 0.125000
vt 0.781250 0.562500
vt 0.781250 0.062500
vt 0.781250 0.500000
vt 0.781250 0.937500
vt 0.796875 1.000000
vt 0.796875 0.000000
vt 0.781250 0.437500
vt 0.765625 1.000000
vt 0.765625 0.000000
s 1
g Esfera_picaporte.001
usemtl picaporte.001
f 477/1/1 14/2/2 13/3/3
f 480/4/4 481/5/5 22/6/6
f 4/7/7 15/8/8 14/2/2
f 481/5/5 482/9/9 23/10/10
f 4/7/7 5/11/11 16/12/12
f 474/13/13 9/14/14 1/15/15
f 8/16/16 23/10/10 482/9/9
f 5/11/11 6/17/17 17/18/18
f 475/19/19 10/20/20 9/14/14
f 6/17/17 478/21/21 18/22/22
f 2/23/23 11/24/24 10/20/20
f 478/21/21 7/25/25 19/26/26
f 476/27/27 12/28/28 11/24/24
f 7/25/25 479/29/29 20/30/30
f 3/31/31 13/3/3 12/28/28
f 479/29/29 480/4/4 21/32/32
f 19/26/26 20/30/30 35/33/33
f 12/28/28 13/3/3 28/34/34
f 21/32/32 36/35/35 35/33/33
f 13/3/3 14/2/2 29/36/36
f 22/6/6 37/37/37 36/35/35
f 15/8/8 30/38/38 29/36/36
f 22/6/6 23/10/10 38/39/39
f 15/8/8 16/12/12 31/40/40
f 9/14/14 24/41/41 1/42/15
f 8/43/16 38/39/39 23/10/10
f 16/12/12 17/18/18 32/44/42
f 9/14/14 10/20/20 25/45/43
f 17/18/18 18/22/22 33/46/44
f 10/20/20 11/24/24 26/47/45
f 18/22/22 19/26/26 34/48/46
f 11/24/24 12/28/28 27/49/47
f 8/50/16 53/51/48 38/39/39
f 32/44/42 47/52/49 46/53/50
f 24/41/41 25/45/43 40/54/51
f 32/44/42 33/46/44 48/55/52
f 25/45/43 26/47/45 41/56/53
f 34/48/46 49/57/54 48/55/52
f 26/47/45 27/49/47 42/58/55
f 35/33/33 50/59/56 49/57/54
f 27/49/47 28/34/34 43/60/57
f 36/35/35 51/61/58 50/59/56
f 28/34/34 29/36/36 44/62/59
f 36/35/35 37/37/37 52/63/60
f 29/36/36 30/38/38 45/64/61
f 37/37/37 38/39/39 53/51/48
f 30/38/38 31/40/40 46/53/50
f 24/41/41 39/65/62 1/66/15
f 50/59/56 51/61/58 66/67/63
f 43/60/57 44/62/59 59/68/64
f 51/61/58 52/63/60 67/69/65
f 45/64/61 60/70/66 59/68/64
f 52/63/60 53/51/48 68/71/67
f 46/53/50 61/72/68 60/70/66
f 39/65/62 54/73/69 1/74/15
f 8/75/16 68/71/67 53/51/48
f 46/53/50 47/52/49 62/76/70
f 39/65/62 40/54/51 55/77/71
f 47/52/49 48/55/52 63/78/72
f 40/54/51 41/56/53 56/79/73
f 49/57/54 64/80/74 63/78/72
f 41/56/53 42/58/55 57/81/75
f 49/57/54 50/59/56 65/82/76
f 42/58/55 43/60/57 58/83/77
f 54/73/69 55/77/71 70/84/78
f 62/76/70 63/78/72 78/85/79
f 55/77/71 56/79/73 71/86/80
f 64/80/74 79/87/81 78/85/79
f 56/79/73 57/81/75 72/88/82
f 64/80/74 65/82/76 80/89/83
f 58/83/77 73/90/84 72/88/82
f 65/82/76 66/67/63 81/91/85
f 58/83/77 59/68/64 74/92/86
f 67/69/65 82/93/87 81/91/85
f 60/70/66 75/94/88 74/92/86
f 67/69/65 68/71/67 83/95/89
f 61/72/68 76/96/90 75/94/88
f 54/73/69 69/97/91 1/98/15
f 8/99/16 83/95/89 68/71/67
f 61/72/68 62/76/70 77/100/92
f 73/90/84 74/92/86 89/101/93
f 81/91/85 82/93/87 97/102/94
f 75/94/88 90/103/95 89/101/93
f 83/95/89 98/104/96 97/102/94
f 76/96/90 91/105/97 90/103/95
f 69/97/91 84/106/98 1/107/15
f 8/108/16 98/104/96 83/95/89
f 76/96/90 77/100/92 92/109/99
f 69/97/91 70/84/78 85/110/100
f 77/100/92 78/85/79 93/111/101
f 70/84/78 71/86/80 86/112/102
f 79/87/81 94/113/103 93/111/101
f 71/86/80 72/88/82 87/114/104
f 79/87/81 80/89/83 95/115/105
f 73/90/84 88/116/106 87/114/104
f 80/89/83 81/91/85 96/117/107
f 92/109/99 93/111/101 108/118/108
f 85/110/100 86/112/102 101/119/109
f 94/113/103 109/120/110 108/118/108
f 86/112/102 87/114/104 102/121/111
f 94/113/103 95/115/105 110/122/112
f 88/116/106 103/123/113 102/121/111
f 96/117/107 111/124/114 110/122/112
f 88/116/106 89/101/93 104/125/115
f 97/102/94 112/126/116 111/124/114
f 90/103/95 105/127/117 104/125/115
f 97/102/94 98/104/96 113/128/118
f 91/105/97 106/129/119 105/127/117
f 84/106/98 99/130/120 1/131/15
f 8/132/16 113/128/118 98/104/96
f 91/105/97 92/109/99 107/133/121
f 85/110/100 100/134/122 99/130/120
f 111/124/114 112/126/116 127/135/123
f 105/127/117 120/136/124 119/137/125
f 112/126/116 113/128/118 128/138/126
f 106/129/119 121/139/127 120/136/124
f 99/130/120 114/140/128 1/141/15
f 8/142/16 128/138/126 113/128/118
f 106/129/119 107/133/121 122/143/129
f 100/134/122 115/144/130 114/140/128
f 107/133/121 108/118/108 123/145/131
f 100/134/122 101/119/109 116/146/132
f 109/120/110 124/147/133 123/145/131
f 101/119/109 102/121/111 117/148/134
f 109/120/110 110/122/112 125/149/135
f 103/123/113 118/150/136 117/148/134
f 111/124/114 126/151/137 125/149/135
f 103/123/113 104/125/115 119/137/125
f 115/144/130 116/146/132 131/152/138
f 124/147/133 139/153/139 138/154/140
f 116/146/132 117/148/134 132/155/141
f 124/147/133 125/149/135 140/156/142
f 118/150/136 133/157/143 132/155/141
f 126/151/137 141/158/144 140/156/142
f 118/150/136 119/137/125 134/159/145
f 126/151/137 127/135/123 142/160/146
f 120/136/124 135/161/147 134/159/145
f 127/135/123 128/138/126 143/162/148
f 121/139/127 136/163/149 135/161/147
f 114/140/128 129/164/150 1/165/15
f 8/166/16 143/162/148 128/138/126
f 121/139/127 122/143/129 137/167/151
f 114/140/128 115/144/130 130/168/152
f 122/143/129 123/145/131 138/154/140
f 135/161/147 150/169/153 149/170/154
f 143/162/148 158/171/155 157/172/156
f 136/163/149 151/173/157 150/169/153
f 129/164/150 144/174/158 1/175/15
f 8/176/16 158/171/155 143/162/148
f 136/163/149 137/167/151 152/177/159
f 129/164/150 130/168/152 145/178/160
f 137/167/151 138/154/140 153/179/161
f 131/152/138 146/180/162 145/178/160
f 139/153/139 154/181/163 153/179/161
f 131/152/138 132/155/141 147/182/164
f 139/153/139 140/156/142 155/183/165
f 133/157/143 148/184/166 147/182/164
f 141/158/144 156/185/167 155/183/165
f 133/157/143 134/159/145 149/170/154
f 141/158/144 142/160/146 157/172/156
f 154/181/163 169/186/168 168/187/169
f 146/180/162 147/182/164 162/188/170
f 154/181/163 155/183/165 170/189/171
f 148/184/166 163/190/172 162/188/170
f 156/185/167 171/191/173 170/189/171
f 148/184/166 149/170/154 164/192/174
f 156/185/167 157/172/156 172/193/175
f 150/169/153 165/194/176 164/192/174
f 157/172/156 158/171/155 173/195/177
f 151/173/157 166/196/178 165/194/176
f 144/174/158 159/197/179 1/198/15
f 8/199/16 173/195/177 158/171/155
f 151/173/157 152/177/159 167/200/180
f 144/174/158 145/178/160 160/201/181
f 152/177/159 153/179/161 168/187/169
f 146/180/162 161/202/182 160/201/181
f 173/195/177 188/203/183 187/204/184
f 166/196/178 181/205/185 180/206/186
f 159/197/179 174/207/187 1/208/15
f 8/209/16 188/203/183 173/195/177
f 166/196/178 167/200/180 182/210/188
f 159/197/179 160/201/181 175/211/189
f 167/200/180 168/187/169 183/212/190
f 160/201/181 161/202/182 176/213/191
f 169/186/168 184/214/192 183/212/190
f 161/202/182 162/188/170 177/215/193
f 169/186/168 170/189/171 185/216/194
f 163/190/172 178/217/195 177/215/193
f 170/189/171 171/191/173 186/218/196
f 163/190/172 164/192/174 179/219/197
f 172/193/175 187/204/184 186/218/196
f 165/194/176 180/206/186 179/219/197
f 184/214/192 185/216/194 200/220/198
f 178/217/195 193/221/199 192/222/200
f 186/218/196 201/223/201 200/220/198
f 178/217/195 179/219/197 194/224/202
f 186/218/196 187/204/184 202/225/203
f 180/206/186 195/226/204 194/224/202
f 187/204/184 188/203/183 203/227/205
f 181/205/185 196/228/206 195/226/204
f 174/207/187 189/229/207 1/230/15
f 8/231/16 203/227/205 188/203/183
f 181/205/185 182/210/188 197/232/208
f 175/211/189 190/233/209 189/229/207
f 182/210/188 183/212/190 198/234/210
f 176/213/191 191/235/211 190/233/209
f 184/214/192 199/236/212 198/234/210
f 176/213/191 177/215/193 192/222/200
f 189/229/207 204/237/213 1/238/15
f 8/239/16 218/240/214 203/227/205
f 196/228/206 197/232/208 212/241/215
f 189/229/207 190/233/209 205/242/216
f 197/232/208 198/234/210 213/243/217
f 190/233/209 191/235/211 206/244/218
f 199/236/212 214/245/219 213/243/217
f 191/235/211 192/222/200 207/246/220
f 199/236/212 200/220/198 215/247/221
f 193/221/199 208/248/222 207/246/220
f 201/223/201 216/249/223 215/247/221
f 193/221/199 194/224/202 209/250/224
f 201/223/201 202/225/203 217/251/225
f 195/226/204 210/252/226 209/250/224
f 202/225/203 203/227/205 218/240/214
f 196/228/206 211/253/227 210/252/226
f 208/248/222 223/254/228 222/255/229
f 216/249/223 231/256/230 230/257/231
f 208/248/222 209/250/224 224/258/232
f 216/249/223 217/251/225 232/259/233
f 210/252/226 225/260/234 224/258/232
f 217/251/225 218/240/214 233/261/235
f 211/253/227 226/262/236 225/260/234
f 204/237/213 219/263/237 1/264/15
f 8/265/16 233/261/235 218/240/214
f 211/253/227 212/241/215 227/266/238
f 204/237/213 205/242/216 220/267/239
f 212/241/215 213/243/217 228/268/240
f 205/242/216 206/244/218 221/269/241
f 214/245/219 229/270/242 228/268/240
f 206/244/218 207/246/220 222/255/229
f 214/245/219 215/247/221 230/257/231
f 226/262/236 227/266/238 242/271/243
f 219/263/237 220/267/239 235/272/244
f 227/266/238 228/268/240 243/273/245
f 221/269/241 236/274/246 235/272/244
f 229/270/242 244/275/247 243/273/245
f 221/269/241 222/255/229 237/276/248
f 229/270/242 230/257/231 245/277/249
f 223/254/228 238/278/250 237/276/248
f 231/256/230 246/279/251 245/277/249
f 223/254/228 224/258/232 239/280/252
f 231/256/230 232/259/233 247/281/253
f 225/260/234 240/282/254 239/280/252
f 233/261/235 248/283/255 247/281/253
f 226/262/236 241/284/256 240/282/254
f 219/263/237 234/285/257 1/286/15
f 8/287/16 248/283/255 233/261/235
f 246/279/251 261/288/258 260/289/259
f 238/278/250 239/280/252 254/290/260
f 246/279/251 247/281/253 262/291/261
f 240/282/254 255/292/262 254/290/260
f 247/281/253 248/283/255 263/293/263
f 241/284/256 256/294/264 255/292/262
f 234/285/257 249/295/265 1/296/15
f 8/297/16 263/293/263 248/283/255
f 241/284/256 242/271/243 257/298/266
f 234/285/257 235/272/244 250/299/267
f 242/271/243 243/273/245 258/300/268
f 235/272/244 236/274/246 251/301/269
f 244/275/247 259/302/270 258/300/268
f 236/274/246 237/276/248 252/303/271
f 244/275/247 245/277/249 260/289/259
f 238/278/250 253/304/272 252/303/271
f 250/299/267 265/305/273 264/306/274
f 257/298/266 258/300/268 273/307/275
f 250/299/267 251/301/269 266/308/276
f 259/302/270 274/309/277 273/307/275
f 251/301/269 252/303/271 267/310/278
f 259/302/270 260/289/259 275/311/279
f 253/304/272 268/312/280 267/310/278
f 261/288/258 276/313/281 275/311/279
f 253/304/272 254/290/260 269/314/282
f 261/288/258 262/291/261 277/315/283
f 255/292/262 270/316/284 269/314/282
f 262/291/261 263/293/263 278/317/285
f 256/294/264 271/318/286 270/316/284
f 249/295/265 264/306/274 1/319/15
f 8/320/16 278/317/285 263/293/263
f 256/294/264 257/298/266 272/321/287
f 268/312/280 269/314/282 284/322/288
f 276/313/281 277/315/283 292/323/289
f 270/316/284 285/324/290 284/322/288
f 278/317/285 293/325/291 292/323/289
f 271/318/286 286/326/292 285/324/290
f 264/306/274 279/327/293 1/328/15
f 8/329/16 293/325/291 278/317/285
f 271/318/286 272/321/287 287/330/294
f 265/305/273 280/331/295 279/327/293
f 272/321/287 273/307/275 288/332/296
f 265/305/273 266/308/276 281/333/297
f 274/309/277 289/334/298 288/332/296
f 266/308/276 267/310/278 282/335/299
f 274/309/277 275/311/279 290/336/300
f 268/312/280 283/337/301 282/335/299
f 276/313/281 291/338/302 290/336/300
f 287/330/294 288/332/296 303/339/303
f 280/331/295 281/333/297 296/340/304
f 289/334/298 304/341/305 303/339/303
f 281/333/297 282/335/299 297/342/306
f 289/334/298 290/336/300 305/343/307
f 283/337/301 298/344/308 297/342/306
f 291/338/302 306/345/309 305/343/307
f 283/337/301 284/322/288 299/346/310
f 291/338/302 292/323/289 307/347/311
f 285/324/290 300/348/312 299/346/310
f 293/325/291 308/349/313 307/347/311
f 286/326/292 301/350/314 300/348/312
f 279/327/293 294/351/315 1/352/15
f 8/353/16 308/349/313 293/325/291
f 286/326/292 287/330/294 302/354/316
f 279/327/293 280/331/295 295/355/317
f 306/345/309 307/347/311 322/356/318
f 300/348/312 315/357/319 314/358/320
f 307/347/311 308/349/313 323/359/321
f 301/350/314 316/360/322 315/357/319
f 294/351/315 309/361/323 1/362/15
f 8/363/16 323/359/321 308/349/313
f 301/350/314 302/354/316 317/364/324
f 294/351/315 295/355/317 310/365/325
f 302/354/316 303/339/303 318/366/326
f 295/355/317 296/340/304 311/367/327
f 304/341/305 319/368/328 318/366/326
f 296/340/304 297/342/306 312/369/329
f 304/341/305 305/343/307 320/370/330
f 298/344/308 313/371/331 312/369/329
f 306/345/309 321/372/332 320/370/330
f 298/344/308 299/346/310 314/358/320
f 319/368/328 334/373/333 333/374/334
f 311/367/327 312/369/329 327/375/335
f 319/368/328 320/370/330 335/376/336
f 312/369/329 313/371/331 328/377/337
f 321/372/332 336/378/338 335/376/336
f 313/371/331 314/358/320 329/379/339
f 321/372/332 322/356/318 337/380/340
f 315/357/319 330/381/341 329/379/339
f 322/356/318 323/359/321 338/382/342
f 316/360/322 331/383/343 330/381/341
f 309/361/323 324/384/344 1/385/15
f 8/386/16 338/382/342 323/359/321
f 316/360/322 317/364/324 332/387/345
f 309/361/323 310/365/325 325/388/346
f 317/364/324 318/366/326 333/374/334
f 310/365/325 311/367/327 326/389/347
f 337/380/340 338/382/342 353/390/348
f 331/383/343 346/391/349 345/392/350
f 324/384/344 339/393/351 1/394/15
f 8/395/16 353/390/348 338/382/342
f 331/383/343 332/387/345 347/396/352
f 324/384/344 325/388/346 340/397/353
f 332/387/345 333/374/334 348/398/354
f 325/388/346 326/389/347 341/399/355
f 334/373/333 349/400/356 348/398/354
f 326/389/347 327/375/335 342/401/357
f 334/373/333 335/376/336 350/402/358
f 328/377/337 343/403/359 342/401/357
f 336/378/338 351/404/360 350/402/358
f 328/377/337 329/379/339 344/405/361
f 336/378/338 337/380/340 352/406/362
f 330/381/341 345/392/350 344/405/361
f 341/399/355 342/401/357 357/407/363
f 349/400/356 350/402/358 365/408/364
f 343/403/359 358/409/365 357/407/363
f 351/404/360 366/410/366 365/408/364
f 343/403/359 344/405/361 359/411/367
f 351/404/360 352/406/362 367/412/368
f 345/392/350 360/413/369 359/411/367
f 352/406/362 353/390/348 368/414/370
f 346/391/349 361/415/371 360/413/369
f 339/393/351 354/416/372 1/417/15
f 8/418/16 368/414/370 353/390/348
f 346/391/349 347/396/352 362/419/373
f 339/393/351 340/397/353 355/420/374
f 347/396/352 348/398/354 363/421/375
f 341/399/355 356/422/376 355/420/374
f 349/400/356 364/423/377 363/421/375
f 361/424/371 376/425/378 375/426/379
f 354/427/372 369/428/380 1/429/15
f 8/430/16 383/431/381 368/432/370
f 361/424/371 362/433/373 377/434/382
f 354/427/372 355/435/374 370/436/383
f 362/433/373 363/437/375 378/438/384
f 356/439/376 371/440/385 370/436/383
f 364/441/377 379/442/386 378/438/384
f 356/439/376 357/443/363 372/444/387
f 364/441/377 365/445/364 380/446/388
f 358/447/365 373/448/389 372/444/387
f 366/449/366 381/450/390 380/446/388
f 358/447/365 359/451/367 374/452/391
f 366/449/366 367/453/368 382/454/392
f 360/455/369 375/426/379 374/452/391
f 367/453/368 368/432/370 383/431/381
f 379/442/386 380/446/388 395/456/393
f 373/448/389 388/457/394 387/458/395
f 381/450/390 396/459/396 395/456/393
f 373/448/389 374/452/391 389/460/397
f 381/450/390 382/454/392 397/461/398
f 375/426/379 390/462/399 389/460/397
f 382/454/392 383/431/381 398/463/400
f 376/425/378 391/464/401 390/462/399
f 369/428/380 384/465/402 1/466/15
f 8/467/16 398/463/400 383/431/381
f 376/425/378 377/434/382 392/468/403
f 369/428/380 370/436/383 385/469/404
f 377/434/382 378/438/384 393/470/405
f 371/440/385 386/471/406 385/469/404
f 379/442/386 394/472/407 393/470/405
f 371/440/385 372/444/387 387/458/395
f 384/465/402 399/473/408 1/474/15
f 8/475/16 413/476/409 398/463/400
f 391/464/401 392/468/403 407/477/410
f 385/469/404 400/478/411 399/473/408
f 392/468/403 393/470/405 408/479/412
f 385/469/404 386/471/406 401/480/413
f 394/472/407 409/481/414 408/479/412
f 386/471/406 387/458/395 402/482/415
f 394/472/407 395/456/393 410/483/416
f 388/457/394 403/484/417 402/482/415
f 396/459/396 411/485/418 410/483/416
f 388/457/394 389/460/397 404/486/419
f 397/461/398 412/487/420 411/485/418
f 390/462/399 405/488/421 404/486/419
f 397/461/398 398/463/400 413/476/409
f 391/464/401 406/489/422 405/488/421
f 403/484/417 418/490/423 417/491/424
f 411/485/418 426/492/425 425/493/426
f 403/484/417 404/486/419 419/494/427
f 411/485/418 412/487/420 427/495/428
f 405/488/421 420/496/429 419/494/427
f 412/487/420 413/476/409 428/497/430
f 406/489/422 421/498/431 420/496/429
f 399/473/408 414/499/432 1/500/15
f 8/501/16 428/497/430 413/476/409
f 406/489/422 407/477/410 422/502/433
f 399/473/408 400/478/411 415/503/434
f 407/477/410 408/479/412 423/504/435
f 401/480/413 416/505/436 415/503/434
f 409/481/414 424/506/437 423/504/435
f 401/480/413 402/482/415 417/491/424
f 409/481/414 410/483/416 425/493/426
f 421/498/431 422/502/433 437/507/438
f 414/499/432 415/503/434 430/508/439
f 422/502/433 423/504/435 438/509/440
f 416/505/436 431/510/441 430/508/439
f 424/506/437 439/511/442 438/509/440
f 416/505/436 417/491/424 432/512/443
f 424/506/437 425/493/426 440/513/444
f 418/490/423 433/514/445 432/512/443
f 426/492/425 441/515/446 440/513/444
f 418/490/423 419/494/427 434/516/447
f 426/492/425 427/495/428 442/517/448
f 420/496/429 435/518/449 434/516/447
f 427/495/428 428/497/430 443/519/450
f 421/498/431 436/520/451 435/518/449
f 414/499/432 429/521/452 1/522/15
f 8/523/16 443/519/450 428/497/430
f 441/515/446 456/524/453 455/525/454
f 433/514/445 434/516/447 449/526/455
f 441/515/446 442/517/448 457/527/456
f 435/518/449 450/528/457 449/526/455
f 442/517/448 443/519/450 458/529/458
f 436/520/451 451/530/459 450/528/457
f 429/521/452 444/531/460 1/532/15
f 8/533/16 458/529/458 443/519/450
f 436/520/451 437/507/438 452/534/461
f 430/508/439 445/535/462 444/531/460
f 437/507/438 438/509/440 453/536/463
f 430/508/439 431/510/441 446/537/464
f 439/511/442 454/538/465 453/536/463
f 431/510/441 432/512/443 447/539/466
f 439/511/442 440/513/444 455/525/454
f 433/514/445 448/540/467 447/539/466
f 452/534/461 453/536/463 468/541/468
f 446/537/464 461/542/469 460/543/470
f 454/538/465 469/544/471 468/541/468
f 446/537/464 447/539/466 462/545/472
f 454/538/465 455/525/454 470/546/473
f 448/540/467 463/547/474 462/545/472
f 456/524/453 471/548/475 470/546/473
f 448/540/467 449/526/455 464/549/476
f 456/524/453 457/527/456 472/550/477
f 450/528/457 465/551/478 464/549/476
f 458/529/458 473/552/479 472/550/477
f 451/530/459 466/553/480 465/551/478
f 444/531/460 459/554/481 1/555/15
f 8/556/16 473/552/479 458/529/458
f 451/530/459 452/534/461 467/557/482
f 444/531/460 445/535/462 460/543/470
f 471/548/475 472/550/477 481/5/5
f 465/551/478 4/7/7 477/1/1
f 472/550/477 473/552/479 482/9/9
f 466/553/480 5/11/11 4/7/7
f 459/554/481 474/13/13 1/558/15
f 8/559/16 482/9/9 473/552/479
f 466/553/480 467/557/482 6/17/17
f 460/543/470 475/19/19 474/13/13
f 467/557/482 468/541/468 478/21/21
f 461/542/469 2/23/23 475/19/19
f 468/541/468 469/544/471 7/25/25
f 462/545/472 476/27/27 2/23/23
f 469/544/471 470/546/473 479/29/29
f 463/547/474 3/31/31 476/27/27
f 471/548/475 480/4/4 479/29/29
f 464/549/476 477/1/1 3/31/31
f 477/1/1 13/3/3 3/31/31
f 480/4/4 22/6/6 21/32/32
f 4/7/7 14/2/2 477/1/1
f 481/5/5 23/10/10 22/6/6
f 4/7/7 16/12/12 15/8/8
f 5/11/11 17/18/18 16/12/12
f 475/19/19 9/14/14 474/13/13
f 6/17/17 18/22/22 17/18/18
f 2/23/23 10/20/20 475/19/19
f 478/21/21 19/26/26 18/22/22
f 476/27/27 11/24/24 2/23/23
f 7/25/25 20/30/30 19/26/26
f 3/31/31 12/28/28 476/27/27
f 479/29/29 21/32/32 20/30/30
f 19/26/26 35/33/33 34/48/46
f 12/28/28 28/34/34 27/49/47
f 21/32/32 35/33/33 20/30/30
f 13/3/3 29/36/36 28/34/34
f 22/6/6 36/35/35 21/32/32
f 15/8/8 29/36/36 14/2/2
f 22/6/6 38/39/39 37/37/37
f 15/8/8 31/40/40 30/38/38
f 16/12/12 32/44/42 31/40/40
f 9/14/14 25/45/43 24/41/41
f 17/18/18 33/46/44 32/44/42
f 10/20/20 26/47/45 25/45/43
f 18/22/22 34/48/46 33/46/44
f 11/24/24 27/49/47 26/47/45
f 32/44/42 46/53/50 31/40/40
f 24/41/41 40/54/51 39/65/62
f 32/44/42 48/55/52 47/52/49
f 25/45/43 41/56/53 40/54/51
f 34/48/46 48/55/52 33/46/44
f 26/47/45 42/58/55 41/56/53
f 35/33/33 49/57/54 34/48/46
f 27/49/47 43/60/57 42/58/55
f 36/35/35 50/59/56 35/33/33
f 28/34/34 44/62/59 43/60/57
f 36/35/35 52/63/60 51/61/58
f 29/36/36 45/64/61 44/62/59
f 37/37/37 53/51/48 52/63/60
f 30/38/38 46/53/50 45/64/61
f 50/59/56 66/67/63 65/82/76
f 43/60/57 59/68/64 58/83/77
f 51/61/58 67/69/65 66/67/63
f 45/64/61 59/68/64 44/62/59
f 52/63/60 68/71/67 67/69/65
f 46/53/50 60/70/66 45/64/61
f 46/53/50 62/76/70 61/72/68
f 39/65/62 55/77/71 54/73/69
f 47/52/49 63/78/72 62/76/70
f 40/54/51 56/79/73 55/77/71
f 49/57/54 63/78/72 48/55/52
f 41/56/53 57/81/75 56/79/73
f 49/57/54 65/82/76 64/80/74
f 42/58/55 58/83/77 57/81/75
f 54/73/69 70/84/78 69/97/91
f 62/76/70 78/85/79 77/100/92
f 55/77/71 71/86/80 70/84/78
f 64/80/74 78/85/79 63/78/72
f 56/79/73 72/88/82 71/86/80
f 64/80/74 80/89/83 79/87/81
f 58/83/77 72/88/82 57/81/75
f 65/82/76 81/91/85 80/89/83
f 58/83/77 74/92/86 73/90/84
f 67/69/65 81/91/85 66/67/63
f 60/70/66 74/92/86 59/68/64
f 67/69/65 83/95/89 82/93/87
f 61/72/68 75/94/88 60/70/66
f 61/72/68 77/100/92 76/96/90
f 73/90/84 89/101/93 88/116/106
f 81/91/85 97/102/94 96/117/107
f 75/94/88 89/101/93 74/92/86
f 83/95/89 97/102/94 82/93/87
f 76/96/90 90/103/95 75/94/88
f 76/96/90 92/109/99 91/105/97
f 69/97/91 85/110/100 84/106/98
f 77/100/92 93/111/101 92/109/99
f 70/84/78 86/112/102 85/110/100
f 79/87/81 93/111/101 78/85/79
f 71/86/80 87/114/104 86/112/102
f 79/87/81 95/115/105 94/113/103
f 73/90/84 87/114/104 72/88/82
f 80/89/83 96/117/107 95/115/105
f 92/109/99 108/118/108 107/133/121
f 85/110/100 101/119/109 100/134/122
f 94/113/103 108/118/108 93/111/101
f 86/112/102 102/121/111 101/119/109
f 94/113/103 110/122/112 109/120/110
f 88/116/106 102/121/111 87/114/104
f 96/117/107 110/122/112 95/115/105
f 88/116/106 104/125/115 103/123/113
f 97/102/94 111/124/114 96/117/107
f 90/103/95 104/125/115 89/101/93
f 97/102/94 113/128/118 112/126/116
f 91/105/97 105/127/117 90/103/95
f 91/105/97 107/133/121 106/129/119
f 85/110/100 99/130/120 84/106/98
f 111/124/114 127/135/123 126/151/137
f 105/127/117 119/137/125 104/125/115
f 112/126/116 128/138/126 127/135/123
f 106/129/119 120/136/124 105/127/117
f 106/129/119 122/143/129 121/139/127
f 100/134/122 114/140/128 99/130/120
f 107/133/121 123/145/131 122/143/129
f 100/134/122 116/146/132 115/144/130
f 109/120/110 123/145/131 108/118/108
f 101/119/109 117/148/134 116/146/132
f 109/120/110 125/149/135 124/147/133
f 103/123/113 117/148/134 102/121/111
f 111/124/114 125/149/135 110/122/112
f 103/123/113 119/137/125 118/150/136
f 115/144/130 131/152/138 130/168/152
f 124/147/133 138/154/140 123/145/131
f 116/146/132 132/155/141 131/152/138
f 124/147/133 140/156/142 139/153/139
f 118/150/136 132/155/141 117/148/134
f 126/151/137 140/156/142 125/149/135
f 118/150/136 134/159/145 133/157/143
f 126/151/137 142/160/146 141/158/144
f 120/136/124 134/159/145 119/137/125
f 127/135/123 143/162/148 142/160/146
f 121/139/127 135/161/147 120/136/124
f 121/139/127 137/167/151 136/163/149
f 114/140/128 130/168/152 129/164/150
f 122/143/129 138/154/140 137/167/151
f 135/161/147 149/170/154 134/159/145
f 143/162/148 157/172/156 142/160/146
f 136/163/149 150/169/153 135/161/147
f 136/163/149 152/177/159 151/173/157
f 129/164/150 145/178/160 144/174/158
f 137/167/151 153/179/161 152/177/159
f 131/152/138 145/178/160 130/168/152
f 139/153/139 153/179/161 138/154/140
f 131/152/138 147/182/164 146/180/162
f 139/153/139 155/183/165 154/181/163
f 133/157/143 147/182/164 132/155/141
f 141/158/144 155/183/165 140/156/142
f 133/157/143 149/170/154 148/184/166
f 141/158/144 157/172/156 156/185/167
f 154/181/163 168/187/169 153/179/161
f 146/180/162 162/188/170 161/202/182
f 154/181/163 170/189/171 169/186/168
f 148/184/166 162/188/170 147/182/164
f 156/185/167 170/189/171 155/183/165
f 148/184/166 164/192/174 163/190/172
f 156/185/167 172/193/175 171/191/173
f 150/169/153 164/192/174 149/170/154
f 157/172/156 173/195/177 172/193/175
f 151/173/157 165/194/176 150/169/153
f 151/173/157 167/200/180 166/196/178
f 144/174/158 160/201/181 159/197/179
f 152/177/159 168/187/169 167/200/180
f 146/180/162 160/201/181 145/178/160
f 173/195/177 187/204/184 172/193/175
f 166/196/178 180/206/186 165/194/176
f 166/196/178 182/210/188 181/205/185
f 159/197/179 175/211/189 174/207/187
f 167/200/180 183/212/190 182/210/188
f 160/201/181 176/213/191 175/211/189
f 169/186/168 183/212/190 168/187/169
f 161/202/182 177/215/193 176/213/191
f 169/186/168 185/216/194 184/214/192
f 163/190/172 177/215/193 162/188/170
f 170/189/171 186/218/196 185/216/194
f 163/190/172 179/219/197 178/217/195
f 172/193/175 186/218/196 171/191/173
f 165/194/176 179/219/197 164/192/174
f 184/214/192 200/220/198 199/236/212
f 178/217/195 192/222/200 177/215/193
f 186/218/196 200/220/198 185/216/194
f 178/217/195 194/224/202 193/221/199
f 186/218/196 202/225/203 201/223/201
f 180/206/186 194/224/202 179/219/197
f 187/204/184 203/227/205 202/225/203
f 181/205/185 195/226/204 180/206/186
f 181/205/185 197/232/208 196/228/206
f 175/211/189 189/229/207 174/207/187
f 182/210/188 198/234/210 197/232/208
f 176/213/191 190/233/209 175/211/189
f 184/214/192 198/234/210 183/212/190
f 176/213/191 192/222/200 191/235/211
f 196/228/206 212/241/215 211/253/227
f 189/229/207 205/242/216 204/237/213
f 197/232/208 213/243/217 212/241/215
f 190/233/209 206/244/218 205/242/216
f 199/236/212 213/243/217 198/234/210
f 191/235/211 207/246/220 206/244/218
f 199/236/212 215/247/221 214/245/219
f 193/221/199 207/246/220 192/222/200
f 201/223/201 215/247/221 200/220/198
f 193/221/199 209/250/224 208/248/222
f 201/223/201 217/251/225 216/249/223
f 195/226/204 209/250/224 194/224/202
f 202/225/203 218/240/214 217/251/225
f 196/228/206 210/252/226 195/226/204
f 208/248/222 222/255/229 207/246/220
f 216/249/223 230/257/231 215/247/221
f 208/248/222 224/258/232 223/254/228
f 216/249/223 232/259/233 231/256/230
f 210/252/226 224/258/232 209/250/224
f 217/251/225 233/261/235 232/259/233
f 211/253/227 225/260/234 210/252/226
f 211/253/227 227/266/238 226/262/236
f 204/237/213 220/267/239 219/263/237
f 212/241/215 228/268/240 227/266/238
f 205/242/216 221/269/241 220/267/239
f 214/245/219 228/268/240 213/243/217
f 206/244/218 222/255/229 221/269/241
f 214/245/219 230/257/231 229/270/242
f 226/262/236 242/271/243 241/284/256
f 219/263/237 235/272/244 234/285/257
f 227/266/238 243/273/245 242/271/243
f 221/269/241 235/272/244 220/267/239
f 229/270/242 243/273/245 228/268/240
f 221/269/241 237/276/248 236/274/246
f 229/270/242 245/277/249 244/275/247
f 223/254/228 237/276/248 222/255/229
f 231/256/230 245/277/249 230/257/231
f 223/254/228 239/280/252 238/278/250
f 231/256/230 247/281/253 246/279/251
f 225/260/234 239/280/252 224/258/232
f 233/261/235 247/281/253 232/259/233
f 226/262/236 240/282/254 225/260/234
f 246/279/251 260/289/259 245/277/249
f 238/278/250 254/290/260 253/304/272
f 246/279/251 262/291/261 261/288/258
f 240/282/254 254/290/260 239/280/252
f 247/281/253 263/293/263 262/291/261
f 241/284/256 255/292/262 240/282/254
f 241/284/256 257/298/266 256/294/264
f 234/285/257 250/299/267 249/295/265
f 242/271/243 258/300/268 257/298/266
f 235/272/244 251/301/269 250/299/267
f 244/275/247 258/300/268 243/273/245
f 236/274/246 252/303/271 251/301/269
f 244/275/247 260/289/259 259/302/270
f 238/278/250 252/303/271 237/276/248
f 250/299/267 264/306/274 249/295/265
f 257/298/266 273/307/275 272/321/287
f 250/299/267 266/308/276 265/305/273
f 259/302/270 273/307/275 258/300/268
f 251/301/269 267/310/278 266/308/276
f 259/302/270 275/311/279 274/309/277
f 253/304/272 267/310/278 252/303/271
f 261/288/258 275/311/279 260/289/259
f 253/304/272 269/314/282 268/312/280
f 261/288/258 277/315/283 276/313/281
f 255/292/262 269/314/282 254/290/260
f 262/291/261 278/317/285 277/315/283
f 256/294/264 270/316/284 255/292/262
f 256/294/264 272/321/287 271/318/286
f 268/312/280 284/322/288 283/337/301
f 276/313/281 292/323/289 291/338/302
f 270/316/284 284/322/288 269/314/282
f 278/317/285 292/323/289 277/315/283
f 271/318/286 285/324/290 270/316/284
f 271/318/286 287/330/294 286/326/292
f 265/305/273 279/327/293 264/306/274
f 272/321/287 288/332/296 287/330/294
f 265/305/273 281/333/297 280/331/295
f 274/309/277 288/332/296 273/307/275
f 266/308/276 282/335/299 281/333/297
f 274/309/277 290/336/300 289/334/298
f 268/312/280 282/335/299 267/310/278
f 276/313/281 290/336/300 275/311/279
f 287/330/294 303/339/303 302/354/316
f 280/331/295 296/340/304 295/355/317
f 289/334/298 303/339/303 288/332/296
f 281/333/297 297/342/306 296/340/304
f 289/334/298 305/343/307 304/341/305
f 283/337/301 297/342/306 282/335/299
f 291/338/302 305/343/307 290/336/300
f 283/337/301 299/346/310 298/344/308
f 291/338/302 307/347/311 306/345/309
f 285/324/290 299/346/310 284/322/288
f 293/325/291 307/347/311 292/323/289
f 286/326/292 300/348/312 285/324/290
f 286/326/292 302/354/316 301/350/314
f 279/327/293 295/355/317 294/351/315
f 306/345/309 322/356/318 321/372/332
f 300/348/312 314/358/320 299/346/310
f 307/347/311 323/359/321 322/356/318
f 301/350/314 315/357/319 300/348/312
f 301/350/314 317/364/324 316/360/322
f 294/351/315 310/365/325 309/361/323
f 302/354/316 318/366/326 317/364/324
f 295/355/317 311/367/327 310/365/325
f 304/341/305 318/366/326 303/339/303
f 296/340/304 312/369/329 311/367/327
f 304/341/305 320/370/330 319/368/328
f 298/344/308 312/369/329 297/342/306
f 306/345/309 320/370/330 305/343/307
f 298/344/308 314/358/320 313/371/331
f 319/368/328 333/374/334 318/366/326
f 311/367/327 327/375/335 326/389/347
f 319/368/328 335/376/336 334/373/333
f 312/369/329 328/377/337 327/375/335
f 321/372/332 335/376/336 320/370/330
f 313/371/331 329/379/339 328/377/337
f 321/372/332 337/380/340 336/378/338
f 315/357/319 329/379/339 314/358/320
f 322/356/318 338/382/342 337/380/340
f 316/360/322 330/381/341 315/357/319
f 316/360/322 332/387/345 331/383/343
f 309/361/323 325/388/346 324/384/344
f 317/364/324 333/374/334 332/387/345
f 310/365/325 326/389/347 325/388/346
f 337/380/340 353/390/348 352/406/362
f 331/383/343 345/392/350 330/381/341
f 331/383/343 347/396/352 346/391/349
f 324/384/344 340/397/353 339/393/351
f 332/387/345 348/398/354 347/396/352
f 325/388/346 341/399/355 340/397/353
f 334/373/333 348/398/354 333/374/334
f 326/389/347 342/401/357 341/399/355
f 334/373/333 350/402/358 349/400/356
f 328/377/337 342/401/357 327/375/335
f 336/378/338 350/402/358 335/376/336
f 328/377/337 344/405/361 343/403/359
f 336/378/338 352/406/362 351/404/360
f 330/381/341 344/405/361 329/379/339
f 341/399/355 357/407/363 356/422/376
f 349/400/356 365/408/364 364/423/377
f 343/403/359 357/407/363 342/401/357
f 351/404/360 365/408/364 350/402/358
f 343/403/359 359/411/367 358/409/365
f 351/404/360 367/412/368 366/410/366
f 345/392/350 359/411/367 344/405/361
f 352/406/362 368/414/370 367/412/368
f 346/391/349 360/413/369 345/392/350
f 346/391/349 362/419/373 361/415/371
f 339/393/351 355/420/374 354/416/372
f 347/396/352 363/421/375 362/419/373
f 341/399/355 355/420/374 340/397/353
f 349/400/356 363/421/375 348/398/354
f 361/424/371 375/426/379 360/455/369
f 361/424/371 377/434/382 376/425/378
f 354/427/372 370/436/383 369/428/380
f 362/433/373 378/438/384 377/434/382
f 356/439/376 370/436/383 355/435/374
f 364/441/377 378/438/384 363/437/375
f 356/439/376 372/444/387 371/440/385
f 364/441/377 380/446/388 379/442/386
f 358/447/365 372/444/387 357/443/363
f 366/449/366 380/446/388 365/445/364
f 358/447/365 374/452/391 373/448/389
f 366/449/366 382/454/392 381/450/390
f 360/455/369 374/452/391 359/451/367
f 367/453/368 383/431/381 382/454/392
f 379/442/386 395/456/393 394/472/407
f 373/448/389 387/458/395 372/444/387
f 381/450/390 395/456/393 380/446/388
f 373/448/389 389/460/397 388/457/394
f 381/450/390 397/461/398 396/459/396
f 375/426/379 389/460/397 374/452/391
f 382/454/392 398/463/400 397/461/398
f 376/425/378 390/462/399 375/426/379
f 376/425/378 392/468/403 391/464/401
f 369/428/380 385/469/404 384/465/402
f 377/434/382 393/470/405 392/468/403
f 371/440/385 385/469/404 370/436/383
f 379/442/386 393/470/405 378/438/384
f 371/440/385 387/458/395 386/471/406
f 391/464/401 407/477/410 406/489/422
f 385/469/404 399/473/408 384/465/402
f 392/468/403 408/479/412 407/477/410
f 385/469/404 401/480/413 400/478/411
f 394/472/407 408/479/412 393/470/405
f 386/471/406 402/482/415 401/480/413
f 394/472/407 410/483/416 409/481/414
f 388/457/394 402/482/415 387/458/395
f 396/459/396 410/483/416 395/456/393
f 388/457/394 404/486/419 403/484/417
f 397/461/398 411/485/418 396/459/396
f 390/462/399 404/486/419 389/460/397
f 397/461/398 413/476/409 412/487/420
f 391/464/401 405/488/421 390/462/399
f 403/484/417 417/491/424 402/482/415
f 411/485/418 425/493/426 410/483/416
f 403/484/417 419/494/427 418/490/423
f 411/485/418 427/495/428 426/492/425
f 405/488/421 419/494/427 404/486/419
f 412/487/420 428/497/430 427/495/428
f 406/489/422 420/496/429 405/488/421
f 406/489/422 422/502/433 421/498/431
f 399/473/408 415/503/434 414/499/432
f 407/477/410 423/504/435 422/502/433
f 401/480/413 415/503/434 400/478/411
f 409/481/414 423/504/435 408/479/412
f 401/480/413 417/491/424 416/505/436
f 409/481/414 425/493/426 424/506/437
f 421/498/431 437/507/438 436/520/451
f 414/499/432 430/508/439 429/521/452
f 422/502/433 438/509/440 437/507/438
f 416/505/436 430/508/439 415/503/434
f 424/506/437 438/509/440 423/504/435
f 416/505/436 432/512/443 431/510/441
f 424/506/437 440/513/444 439/511/442
f 418/490/423 432/512/443 417/491/424
f 426/492/425 440/513/444 425/493/426
f 418/490/423 434/516/447 433/514/445
f 426/492/425 442/517/448 441/515/446
f 420/496/429 434/516/447 419/494/427
f 427/495/428 443/519/450 442/517/448
f 421/498/431 435/518/449 420/496/429
f 441/515/446 455/525/454 440/513/444
f 433/514/445 449/526/455 448/540/467
f 441/515/446 457/527/456 456/524/453
f 435/518/449 449/526/455 434/516/447
f 442/517/448 458/529/458 457/527/456
f 436/520/451 450/528/457 435/518/449
f 436/520/451 452/534/461 451/530/459
f 430/508/439 444/531/460 429/521/452
f 437/507/438 453/536/463 452/534/461
f 430/508/439 446/537/464 445/535/462
f 439/511/442 453/536/463 438/509/440
f 431/510/441 447/539/466 446/537/464
f 439/511/442 455/525/454 454/538/465
f 433/514/445 447/539/466 432/512/443
f 452/534/461 468/541/468 467/557/482
f 446/537/464 460/543/470 445/535/462
f 454/538/465 468/541/468 453/536/463
f 446/537/464 462/545/472 461/542/469
f 454/538/465 470/546/473 469/544/471
f 448/540/467 462/545/472 447/539/466
f 456/524/453 470/546/473 455/525/454
f 448/540/467 464/549/476 463/547/474
f 456/524/453 472/550/477 471/548/475
f 450/528/457 464/549/476 449/526/455
f 458/529/458 472/550/477 457/527/456
f 451/530/459 465/551/478 450/528/457
f 451/530/459 467/557/482 466/553/480
f 444/531/460 460/543/470 459/554/481
f 471/548/475 481/5/5 480/4/4
f 465/551/478 477/1/1 464/549/476
f 472/550/477 482/9/9 481/5/5
f 466/553/480 4/7/7 465/551/478
f 466/553/480 6/17/17 5/11/11
f 460/543/470 474/13/13 459/554/481
f 467/557/482 478/21/21 6/17/17
f 461/542/469 475/19/19 460/543/470
f 468/541/468 7/25/25 478/21/21
f 462/545/472 2/23/23 461/542/469
f 469/544/471 479/29/29 7/25/25
f 463/547/474 476/27/27 462/545/472
f 471/548/475 479/29/29 470/546/473
f 464/549/476 3/31/31 463/547/474
o Plano
v 19.956621 15.947475 -3.579778
v 21.116941 15.947475 -3.579778
v 19.956621 13.947617 -3.556078
v 21.116941 13.947617 -3.556078
vn -0.0000 -0.0119 -0.9999
vt 1.000000 0.000000
vt 0.000000 1.000000
vt 0.000000 0.000000
vt 1.000000 1.000000
s 1
g Plano_entrada.003
usemtl entrada.003
f 484/560/483 485/561/483 483/562/483
f 484/560/483 486/563/483 485/561/483
